<?xml version="1.0" encoding="utf-8"?>
<!-- Generator: Adobe Illustrator 15.1.0, SVG Export Plug-In . SVG Version: 6.00 Build 0)  -->
<!DOCTYPE svg PUBLIC "-//W3C//DTD SVG 1.1//EN" "http://www.w3.org/Graphics/SVG/1.1/DTD/svg11.dtd">
<svg version="1.1" xmlns="http://www.w3.org/2000/svg" xmlns:xlink="http://www.w3.org/1999/xlink" x="0px" y="0px" width="722px"
	 height="248.068px" viewBox="0 0 722 248.068" enable-background="new 0 0 722 248.068" xml:space="preserve">
<g id="Layer_1">
</g>
<g id="sky">
	<rect x="-278" y="-38" fill="#6B9A22" width="999" height="334"/>
</g>
<g id="Mountain">
	<path fill="#AFC757" d="M267.75,154c0,0,157.304-2.595,203.917-23c30.458-13.333,24.833-19,51.271-24
		c26.956-5.098,53.158,24.932,75.063,34.206C626.692,153.353,688.984,160.5,720.984,162s-0.481,55-0.481,55H265L267.75,154z"/>
</g>
<g id="background">
	<polygon fill="#7BA342" points="-278,138 -249,138 -233,142 -229.5,140 -207,140 -201,142 -201,156 -187,155 -187,221 -279,221 	
		"/>
	<polygon fill="#7BA342" points="340.875,173.75 349.688,171.125 352.844,173.563 356.5,171 361,171 361,174 364.5,172.5 
		369.074,171.128 369.5,171 374.5,172.5 377.5,171 382,172.5 387.5,171 392,171 394,171 402,174 447,174 468,174 481,174 483.5,167 
		494,167 506,167 506,174 568,176 721,179.5 722,254 341,254 	"/>
</g>
<g id="city">
	<path fill="#8BB32C" d="M-279,296H721v-69h-5v-1h-6h-5v-1h-3v-3h-8v4h-4v3h-3v-4l-1.938-2.125l-1.063,1.25V223h-7h-3h-5v4h-13v13
		h-6v-4c0,0-11-5.5-16-5.5c-4,0,0,8.5,0,8.5h-13v5h-5v-68h-3v-4h-11v-5h-14v2h-6v2h-5v2h-4v3h-5v58h-5v2h-2v-6h-9v4h-10v2h-4v5h-16
		v-36h-14v-6h-9v5h-6v-8h-6v-11h-2v-4h-4v-5h-5v-2h-11v6h-14v-3h-4v-9h-2v3h-2l1,1h-12v-20h-27v19h-13l-12,4.25V211h-9v-23l-8,7.75
		V184h-3v-3h-14v-10h-2v-4h-6l-2.25-5H329v-12l-5.25-4H309l-6,3.5V170l-3-2h-5l-4,2.25V165l-4.25-12.5l-5.75,12v2.5l-2.5-2H273v-27
		l-3-5.5V120h-14V92h-6l-7-8.5V83h-1l-10,9h-6v78h-5v-30h-2v-29h-28v19h-8v10h-5V66h-2v-3h-19v2h-3v28h-3v2h-3v32h-3v3h-6v27
		l-2.875,4H120V94H90v20h-4v26H74v-2H56v-27l-10.375-10H37l-4.625,5H28v6h-3v5h-7v5h-8v-4h-33V74l-36-7.5V76h-4v68h-13v3h-19v-28
		h-12l-7.375-7.125L-121,117h-10v21h-3v-4h-22v7h-4v-8h-25v22h-14v1v17h-5v3h-5v-3h-17v14h-15v12h-3.75H-247l-1.75,1.25l-2.75-2.375
		l-3-1.313l-3.25,0.844l0.25,1.594h-3.5c0,0,0-1-0.5-2s-1.5-1.875-2.5-1.875s-5,1.625-5,1.625V200v8l-4-0.25l-1.375,5.25
		l-4.625,2.75V296z"/>
	<path fill="#8BB32C" d="M599,682"/>
</g>
<g id="space_needle">
	<g>
		<path fill-rule="evenodd" clip-rule="evenodd" fill="#FFFFFF" d="M128.401,5.382c-0.05-0.411,0.056-0.666,0.196-0.885
			c0.279-0.016-0.081,0.606,0.197,0.59c0.062,0.299-0.126,0.847,0.098,0.983c0,0.328,0,0.656,0,0.983
			c0.063,0.299-0.125,0.847,0.1,0.983c0.062,0.331-0.127,0.913,0.098,1.082c0,0.36,0,0.721,0,1.082
			c0.062,0.299-0.126,0.847,0.099,0.983c0.063,0.363-0.128,0.979,0.099,1.18c0.076,1.944,0.081,3.701,0.295,5.703
			c0.111,1.055,0.525,4.276,1.18,4.818c1.086,0.9,3.212,0.132,4.425,0.885c0.602,0.374,0.478,1.436,1.081,1.967
			c0.694,0.609,1.356,0.104,2.164,0.787c0.364,1.162-2.318,1.831-2.262,3.048c0.031,0.681,1.578,1.247,2.359,1.573
			c3.451,1.44,6.738,2.895,9.932,3.737c1.197,1.163,2.995,1.726,4.818,2.262c0.176,1.219-0.456,1.967-0.196,2.753
			c0.48,1.45,4.774,1.103,4.917,2.557c0.102,1.042-2.618,1.61-3.344,1.77c-2.385,0.524-5.938-0.166-5.506,2.753
			c0.193,1.307,2.758,1.531,2.852,2.36c0.133,1.177-3.341,1.61-4.426,1.868c-1.82,0.433-3.842,0.974-5.015,1.278
			c-0.989,3.854-1.392,7.833-1.967,11.8c-1.131,7.796-2.254,16.04-3.54,24.091c-0.633,3.963-1.632,7.749-1.868,11.8
			c-0.163,0.202-0.163,1.077,0,1.278c0,0.033,0,0.065,0,0.098c-0.229,0.656-0.033,1.736-0.099,2.557c0,0.033,0,0.065,0,0.098
			c-0.164,4.72-0.164,10.128,0,14.849c0,1.704,0,3.409,0,5.113c0.065,0.918-0.13,2.097,0.099,2.852c0,0.033,0,0.065,0,0.098
			c0.064,0.624-0.13,1.506,0.099,1.967c0,0.524,0,1.049,0,1.573c0.063,0.461-0.129,1.178,0.098,1.475c0,0.328,0,0.656,0,0.983
			c0.022,0.076,0.003,0.194,0.099,0.197c0.064,0.591-0.13,1.44,0.099,1.868c2.498,27.277,4.508,55.527,6.883,82.993
			c0.06,0.793,0.039,1.666,0.197,2.36c0.205,1.208,2.231,1.396,3.441,1.77c1.426,0.441,2.731,0.723,3.54,1.278
			c-0.567,0.777-2.15,0.538-3.245,0.787c-0.82,0.065-1.9-0.13-2.557,0.099c-1.525,0.277-0.541,4.242-0.393,5.998
			c0.353,4.182,0.663,7.932,0.885,12.095c0.095,1.79,0.702,4.968,0.196,5.9c-0.59,0-1.181,0-1.771,0
			c-0.186-0.174-0.629-0.091-0.786-0.295c-0.655-3.606-0.964-9.181-1.278-13.668c-0.092-1.316-0.312-5.205-1.672-3.343
			c-0.228,0.428-0.033,1.277-0.098,1.868c0.063,0.494-0.129,1.244,0.098,1.574c0.064,0.493-0.129,1.243,0.099,1.573
			c0,0.459,0,0.917,0,1.376c0.063,0.428-0.128,1.112,0.099,1.377c0.063,0.46-0.129,1.177,0.098,1.475c0,0.426,0,0.853,0,1.278
			c0.063,0.428-0.128,1.112,0.099,1.377c0.063,0.428-0.128,1.111,0.099,1.376c0,0.033,0,0.065,0,0.099
			c-0.164,0.202-0.164,1.077,0,1.278c0,0.033,0,0.065,0,0.098c0,0.721,0,1.442,0,2.163c0,0.099-0.08,0.117-0.099,0.197
			c-0.061,0.136-0.379,0.015-0.394,0.197c-0.36,0-0.721,0-1.082,0c-0.175-0.316-0.646-0.336-0.688-0.787
			c-0.064-0.428,0.128-1.112-0.099-1.377c-0.063-0.428,0.128-1.111-0.099-1.376c0-0.426,0-0.852,0-1.278
			c-0.063-0.493,0.129-1.243-0.098-1.573c0-0.426,0-0.852,0-1.278c0-0.065,0-0.131,0-0.197c-0.064-0.493,0.129-1.243-0.099-1.573
			c0-0.033,0-0.065,0-0.098c-0.064-0.526,0.129-1.309-0.099-1.672c0-0.59,0-1.18,0-1.77c-0.063-0.428,0.129-1.111-0.098-1.376
			c0.012-0.505-0.195-0.789-0.59-0.885c-0.17-0.163-1.012-0.163-1.181,0c-0.263,0-0.524,0-0.786,0c-0.139-0.163-0.944-0.163-1.082,0
			c-0.552,0.04-0.724,0.979-0.492,1.475c0,0.688,0,1.376,0,2.065c0.064,0.722-0.13,1.703,0.099,2.262
			c0.065,0.787-0.13,1.834,0.099,2.458c0,0.688,0,1.376,0,2.065c0,0.065,0,0.131,0,0.196c0.064,0.624-0.13,1.506,0.098,1.967
			c0,0.688,0,1.377,0,2.065c-0.134,0.325-0.363,0.554-0.688,0.688c-0.722,0-1.442,0-2.164,0c-1.541-0.229-3.507-0.033-5.211-0.098
			c-0.202-0.093-0.273-0.318-0.394-0.492c-0.064-0.526,0.129-1.309-0.099-1.672c0-3.54,0-7.08,0-10.62c0-0.065,0-0.131,0-0.196
			c-0.064-0.853,0.131-1.966-0.098-2.655c-0.042-0.352-0.314-0.473-0.689-0.492c-1.541-0.164-3.769-0.164-5.31,0
			c-1.642,0.292-3.964-0.096-5.604,0.197c-0.879,0.802-0.649,2.218-0.787,3.442c-0.412,3.666-0.809,7.912-1.377,11.406
			c-0.23,0.032-0.369,0.156-0.688,0.099c-0.363-0.228-1.146-0.034-1.672-0.099c-0.147-0.115-0.402-0.122-0.492-0.295
			c-0.078-3.813,0.668-8.006,1.18-11.997c0.152-1.188,0.632-3.296,0.492-4.228c-0.152-1.02-1.857-1.581-1.967-2.557
			c-0.107-0.958,0.929-1.49,0.983-2.36c0.058-0.912-0.729-1.022-1.081-1.573c0.728-0.681,1.801-0.584,2.458-1.18
			c0.78-0.708,0.88-3.233,1.081-5.113c0.6-5.58,1.198-11.2,1.771-16.225c2.556-22.444,5.345-44.716,7.375-66.965
			c0.224-0.137,0.036-0.685,0.099-0.983c0-0.295,0-0.59,0-0.885c0.225-0.168,0.035-0.75,0.098-1.082
			c0.226-0.168,0.036-0.75,0.099-1.082c0-0.328,0-0.656,0-0.983c0.226-0.201,0.036-0.817,0.099-1.18c0-0.033,0-0.065,0-0.098
			c0.227-0.233,0.035-0.883,0.098-1.278c0-0.426,0-0.853,0-1.278c0.227-0.265,0.035-0.949,0.099-1.377c0-0.033,0-0.065,0-0.098
			c0.163-0.169,0.163-1.01,0-1.18c0-0.033,0-0.065,0-0.098c0.228-0.33,0.034-1.08,0.099-1.573c0.227-0.33,0.034-1.08,0.098-1.573
			c0-0.558,0-1.115,0-1.672c0.229-0.395,0.035-1.211,0.099-1.77c0.228-0.46,0.034-1.343,0.099-1.967c0-0.721,0-1.442,0-2.163
			c0.229-0.591,0.033-1.605,0.098-2.36c0-0.033,0-0.066,0-0.099c0.229-0.754,0.033-1.933,0.099-2.852c0-1.278,0-2.557,0-3.835
			c0.163-0.106,0.163-0.877,0-0.983c-0.064-0.82,0.13-1.9-0.099-2.557c-1.502-15.971-3.504-31.78-5.604-46.807
			c-1.897-1.25-6.619-1.417-9.146-2.458c-0.319-0.132-1.563-0.789-1.572-1.279c-0.029-1.284,2.773-0.889,3.048-2.163
			c0.53-1.979-0.577-2.324-2.065-2.655c-2.266-0.505-5.314-0.86-6.588-1.869c0-0.098,0-0.197,0-0.295
			c1.492-1.098,4.151-1.027,5.408-2.36c-0.01-1.023-0.691-1.685-0.295-2.458c0.504-0.981,2.215-0.22,2.95-1.082
			c0.237-0.254-0.019-1.001,0.196-1.278c0-0.099,0.08-0.117,0.099-0.197c3.021-0.563,5.141-1.288,8.358-2.36
			c1.449-0.483,5.359-1.377,5.506-2.557c0.207-1.647-2.133-1.752-2.359-3.245c0.754-0.847,1.576-0.376,2.163-1.082
			c0.425-0.511,0.288-1.459,0.787-1.869c1.208-0.989,3.548-0.085,4.72-0.983c0.335-0.257,0.564-1.331,0.688-1.967
			c0.468-2.412,0.613-4.799,0.688-7.375c0.225-0.168,0.035-0.75,0.098-1.082c0.227-0.201,0.036-0.817,0.099-1.18
			c0-0.394,0-0.787,0-1.18c0.226-0.2,0.036-0.816,0.099-1.18c0.226-0.201,0.035-0.817,0.098-1.18c0-0.36,0-0.721,0-1.082
			C128.529,6.361,128.339,5.745,128.401,5.382z M132.826,52.975c-0.593,0.03-0.828,0.417-0.786,1.082
			c-0.164,0.723-0.164,2.129,0,2.852c0.065,9.932-0.132,20.125,0.099,29.893c-0.01,0.269,0.164,0.198,0,0.394
			c0.886-1.01,0.889-2.538,1.081-3.835c1.499-10.086,2.872-19.949,4.13-30.188c-0.229-0.558-1.385-0.189-2.064-0.295
			C134.498,52.942,133.45,52.747,132.826,52.975z M120.731,53.172c-0.136-0.004-0.216,0.046-0.295,0.098
			c-0.575,1.183-0.097,2.501,0,3.737c0.756,9.666,1.222,19.237,2.065,28.713c0.062,0.299-0.126,0.847,0.098,0.983
			c0.163,3.803,0.568,7.364,0.787,11.111c0.063,0.331-0.127,0.914,0.098,1.082c0.064,0.428-0.128,1.111,0.1,1.376
			c0,0.656,0,1.311,0,1.967c0,1.835,0,3.671,0,5.506c0,1.508,0,3.016,0,4.523c-0.229,0.853-0.034,2.13-0.1,3.146
			c-0.229,0.624-0.033,1.671-0.098,2.458c0,0.033,0,0.065,0,0.098c0,0.656,0,1.312,0,1.967c-0.229,0.428-0.034,1.277-0.099,1.869
			c-0.228,0.395-0.034,1.211-0.099,1.77c0,0.525,0,1.049,0,1.574c-0.227,0.297-0.034,1.014-0.098,1.475c0,0.033,0,0.066,0,0.099
			c-0.227,0.265-0.035,0.948-0.099,1.376c0,0.426,0,0.853,0,1.278c-0.226,0.233-0.035,0.883-0.099,1.278c0,0.033,0,0.066,0,0.099
			c-0.162,0.138-0.162,0.944,0,1.082c0,0.033,0,0.065,0,0.098c-0.225,0.168-0.035,0.751-0.098,1.082c0,0.033,0,0.065,0,0.098
			c-0.225,0.168-0.036,0.75-0.099,1.082c0,0.361,0,0.721,0,1.082c-0.224,0.105-0.038,0.618-0.099,0.885
			c-0.224,0.136-0.036,0.685-0.098,0.983c-0.838,11.502-2.188,23.234-3.344,34.613c-0.385,3.794-1.047,7.562-1.082,11.308
			c0.208,0.087,0.291,0.299,0.59,0.295c0.657,0.229,1.737,0.034,2.557,0.099c0.33,0.227,1.08,0.034,1.574,0.098
			c0.402,0.01,0.806,0.02,1.082-0.098c0.141-0.219,0.246-0.474,0.196-0.885c0.163-0.428,0.163-1.538,0-1.967
			c0-7.703,0-15.405,0-23.108c0-10.653,0-21.306,0-31.958c0-6.654,0-13.308,0-19.961c-0.065-4.884,0.131-10.03-0.099-14.75
			c0-4.982,0-9.964,0-14.947c0.228-0.395,0.034-1.211,0.099-1.77c-0.295-6.261,0.098-13.209-0.196-19.47
			c-0.004-0.718-0.009-1.434-0.689-1.475C122.599,53.008,121.323,53.008,120.731,53.172z M117.191,53.369
			c-0.195,1.21-0.053,3.436,0.59,4.622C117.871,56.552,117.943,54.292,117.191,53.369z M138.629,64.48
			c0.443-3.552,1.08-7.11,1.376-10.816c0-0.065,0-0.131,0-0.197c-0.14-0.038-0.166-0.118-0.295,0
			c-0.765,3.179-1.007,7.063-1.476,10.817c-0.35,2.804-0.763,5.648-1.081,8.26c-0.102,0.835-0.462,1.8,0,2.557
			C138.041,71.647,138.19,67.988,138.629,64.48z M117.88,58.777c-0.169,0.421-0.334,1.138,0.196,1.278
			C118.064,59.576,118.148,59,117.88,58.777z M118.273,60.842c-0.543,0.007-0.286,1.097,0,1.18
			C118.351,61.651,118.445,61.189,118.273,60.842z M132.335,146.588c-0.011-0.12-0.029-0.233-0.196-0.197
			c-0.031,0.133-0.141,0.188-0.099,0.394c0,1.671,0,3.343,0,5.015c-0.042,0.371,0.208,0.448,0.394,0.59
			c-0.017-0.223,0.473-0.433,0.196-0.59c0-0.393,0-0.787,0-1.18c0-0.066,0-0.131,0-0.197c-0.062-0.331,0.127-0.914-0.099-1.082
			c0-0.033,0-0.066,0-0.099c-0.063-0.331,0.127-0.913-0.098-1.082C132.369,147.668,132.563,146.918,132.335,146.588z
			 M133.023,156.618c0.078-0.734-0.222-1.089-0.59-1.376c-0.121,0.306-0.457,0.395-0.394,0.885c0,3.868,0,7.736,0,11.604
			c-0.031,0.228,0.016,0.377,0.099,0.492c0.51,0.406,1.504,0.136,1.475-0.59c0-0.426,0-0.853,0-1.278c0-0.066,0-0.131,0-0.197
			c-0.063-0.331,0.127-0.914-0.098-1.082c-0.063-0.364,0.127-0.98-0.1-1.18c0-0.361,0-0.721,0-1.082
			c-0.062-0.331,0.127-0.914-0.098-1.082c0-0.36,0-0.721,0-1.082c-0.062-0.299,0.126-0.847-0.099-0.983c0-0.033,0-0.065,0-0.098
			c-0.062-0.299,0.126-0.847-0.099-0.983c0-0.328,0-0.656,0-0.983C133.061,157.303,133.248,156.755,133.023,156.618z
			 M133.908,172.155c-0.029-0.789-0.57-1.068-1.18-1.278c-0.238,0.155-0.436,0.352-0.59,0.59c-0.23,3.54-0.033,7.506-0.099,11.21
			c-0.031,0.228,0.016,0.377,0.099,0.492c0.367,0.447,1.782,0.4,2.163,0c-0.021-0.29,0.389-0.652,0.099-0.885
			c-0.063-0.299,0.125-0.847-0.099-0.983c0-0.328,0-0.655,0-0.983c0-0.065,0-0.131,0-0.196c-0.063-0.364,0.127-0.98-0.099-1.18
			c-0.063-0.363,0.127-0.979-0.098-1.18c0-0.033,0-0.065,0-0.098c0.162-0.138,0.162-0.944,0-1.082c0-0.033,0-0.066,0-0.099
			c-0.063-0.363,0.127-0.979-0.099-1.18c-0.063-0.331,0.126-0.914-0.099-1.082c0-0.164,0-0.328,0-0.492
			C134.072,173.43,134.072,172.454,133.908,172.155z M137.939,219.65c-0.007,0.171,0.022,0.306,0.099,0.393
			c0.581,0.227,1.623,0.135,1.868-0.295c-0.819-11.942-1.666-25.11-2.654-37.76c-0.129-1.645,0.026-3.645-1.082-4.818
			c-0.014,0.448-0.596,0.842-0.394,1.18c0.033,0,0.065,0,0.099,0c0.023,0.533,0.158,0.957,0.098,1.573
			c0.063,0.331-0.126,0.913,0.1,1.082c0.062,0.331-0.127,0.914,0.098,1.082c0,0.361,0,0.721,0,1.082
			c0.063,0.331-0.127,0.913,0.098,1.082c0.063,0.331-0.126,0.913,0.1,1.082c0,0.328,0,0.656,0,0.983c0,0.065,0,0.131,0,0.197
			c0.062,0.331-0.127,0.913,0.098,1.082c0.063,0.363-0.127,0.979,0.099,1.18c0,0.033,0,0.065,0,0.098
			c-0.163,0.106-0.163,0.877,0,0.983c0,0.033,0,0.065,0,0.098c0.063,0.363-0.128,0.979,0.099,1.18c0,0.426,0,0.852,0,1.278
			c0.063,0.396-0.129,1.045,0.098,1.278c0,0.033,0,0.065,0,0.098c0.063,0.428-0.128,1.112,0.099,1.377c0,0.426,0,0.852,0,1.278
			c0.063,0.46-0.129,1.177,0.099,1.475c0.063,0.461-0.129,1.178,0.098,1.475c0,0.394,0,0.787,0,1.18c0,0.065,0,0.131,0,0.197
			c0.064,0.46-0.129,1.177,0.099,1.475c0.063,0.461-0.129,1.178,0.099,1.475c0,0.492,0,0.983,0,1.475
			c0.063,0.428-0.129,1.112,0.098,1.376c0,0.033,0,0.066,0,0.099c0,0.426,0,0.852,0,1.278c0,0.033,0,0.065,0,0.098
			c0.064,0.461-0.129,1.178,0.099,1.475c0.063,0.493-0.129,1.243,0.099,1.573c0,0.459,0,0.918,0,1.377
			c0.063,0.46-0.129,1.177,0.098,1.475c0.064,0.461-0.129,1.178,0.099,1.475c0,0.492,0,0.983,0,1.475
			c0.063,0.461-0.128,1.178,0.099,1.475C137.904,218.767,137.714,219.417,137.939,219.65z M117.88,186.02
			c-0.228-0.031-0.378,0.016-0.491,0.098c-0.691,2.781-0.869,5.734-1.18,8.653c-0.952,8.932-2.289,17.788-2.853,26.157
			c1.44-0.1,2.323-0.758,3.835-0.787c0.363-0.063,0.98,0.127,1.18-0.099c0.033,0,0.066,0,0.099,0c1.114,0,2.229,0,3.344,0
			c0.032,0,0.065,0,0.099,0c0.266,0.164,1.209,0.164,1.475,0c0.519-0.038,0.77-0.345,0.787-0.885c0.163-5.179,0.163-11.046,0-16.225
			c-0.066-5.375,0.131-11.013-0.099-16.225c0.058-0.516-0.259-0.66-0.688-0.688C121.78,185.856,119.486,185.856,117.88,186.02z
			 M132.925,186.02c-0.151-0.146-0.806,0.042-0.786,0.393c-0.23,3.737-0.033,7.899-0.099,11.8c-0.056,0.731,0.554,1.255,1.081,1.082
			c0.332-0.063,0.914,0.126,1.082-0.099c0.502,0.043,0.879-0.039,0.885-0.491c0.164-0.202,0.164-1.077,0-1.278
			c-0.063-0.461,0.129-1.178-0.098-1.475c0-0.492,0-0.983,0-1.475c-0.064-0.428,0.128-1.112-0.099-1.376c0-0.459,0-0.918,0-1.377
			c-0.063-0.428,0.128-1.111-0.099-1.376c0-0.033,0-0.065,0-0.099c-0.063-0.46,0.129-1.177-0.098-1.475
			c-0.064-0.657,0.129-1.572-0.099-2.065c-0.073-0.354-0.195-0.657-0.688-0.59C133.771,185.894,133.224,186.082,132.925,186.02z
			 M133.023,201.852c-0.606,0.016-0.898,0.347-0.983,0.885c0,3.54,0,7.08,0,10.62c0.062,0.299-0.126,0.847,0.099,0.983
			c0.021,0.076,0.002,0.194,0.098,0.197c-0.014,0.407,0.685,0.102,0.983,0.197c0.364,0.163,1.407,0.163,1.771,0
			c0.196,0,0.393,0,0.59,0c0.001-0.483,0.607-1.326,0.196-1.574c-0.062-0.331,0.127-0.913-0.099-1.082c0-0.492,0-0.983,0-1.475
			c-0.063-0.46,0.129-1.177-0.098-1.475c0-0.492,0-0.983,0-1.475c-0.064-0.559,0.129-1.375-0.099-1.77
			c-0.064-0.722,0.13-1.704-0.099-2.262c0.08-0.833-0.068-1.439-0.491-1.77c-0.099,0-0.196,0-0.295,0
			C134.298,201.688,133.322,201.688,133.023,201.852z M133.318,217.388c-0.602-0.076-0.859,0.189-1.18,0.393
			c-0.346,1.188,0.092,2.293,1.277,2.262c0.461,0.164,1.604,0.164,2.065,0c0.294,0,0.413-0.177,0.491-0.393
			c0.164-0.298,0.164-1.275,0-1.573c-0.059-0.563-0.52-0.726-1.18-0.688C134.527,217.225,133.584,217.225,133.318,217.388z"/>
		<path fill-rule="evenodd" clip-rule="evenodd" fill="#FFFFFF" d="M128.795,5.087c0.225,0.136,0.037,0.685,0.098,0.983
			C128.669,5.934,128.856,5.386,128.795,5.087z"/>
		<path fill-rule="evenodd" clip-rule="evenodd" fill="#FFFFFF" d="M128.893,6.07c0.225,0.136,0.037,0.685,0.1,0.983
			c-0.033,0-0.066,0-0.1,0C128.893,6.726,128.893,6.398,128.893,6.07z"/>
		<path fill-rule="evenodd" clip-rule="evenodd" fill="#FFFFFF" d="M128.893,7.054c0.033,0,0.066,0,0.1,0c0,0.328,0,0.655,0,0.983
			C128.768,7.9,128.955,7.353,128.893,7.054z"/>
		<path fill-rule="evenodd" clip-rule="evenodd" fill="#FFFFFF" d="M128.205,8.824c0.063-0.363-0.127-0.979,0.098-1.18
			C128.24,8.007,128.431,8.623,128.205,8.824z"/>
		<path fill-rule="evenodd" clip-rule="evenodd" fill="#FFFFFF" d="M128.992,8.037c0.225,0.168,0.035,0.75,0.098,1.082
			C128.865,8.95,129.054,8.368,128.992,8.037z"/>
		<path fill-rule="evenodd" clip-rule="evenodd" fill="#FFFFFF" d="M128.106,10.003c0.063-0.363-0.127-0.979,0.099-1.18
			C128.143,9.187,128.332,9.803,128.106,10.003z"/>
		<path fill-rule="evenodd" clip-rule="evenodd" fill="#FFFFFF" d="M129.09,9.119c0.225,0.168,0.036,0.75,0.099,1.082
			c-0.033,0-0.065,0-0.099,0C129.09,9.84,129.09,9.479,129.09,9.119z"/>
		<path fill-rule="evenodd" clip-rule="evenodd" fill="#FFFFFF" d="M128.106,10.003c0,0.394,0,0.787,0,1.18
			c-0.032,0-0.065,0-0.099,0C128.07,10.82,127.881,10.204,128.106,10.003z"/>
		<path fill-rule="evenodd" clip-rule="evenodd" fill="#FFFFFF" d="M123.977,90.833c-0.164-4.753-0.164-10.194,0-14.947
			C123.977,80.869,123.977,85.851,123.977,90.833z"/>
		<path fill-rule="evenodd" clip-rule="evenodd" fill="#FFFFFF" d="M135.187,100.175c0,0.426,0,0.852,0,1.278
			C135.023,101.252,135.023,100.377,135.187,100.175z"/>
		<path fill-rule="evenodd" clip-rule="evenodd" fill="#FFFFFF" d="M123.584,102.24c0.163,1.606,0.163,3.9,0,5.506
			C123.584,105.911,123.584,104.076,123.584,102.24z"/>
		<path fill-rule="evenodd" clip-rule="evenodd" fill="#FFFFFF" d="M121.026,102.338c0.163,0.106,0.163,0.877,0,0.983
			C121.026,102.994,121.026,102.666,121.026,102.338z"/>
		<path fill-rule="evenodd" clip-rule="evenodd" fill="#FFFFFF" d="M135.088,104.207c0,4.95,0,9.899,0,14.849
			C134.924,114.335,134.924,108.927,135.088,104.207z"/>
		<path fill-rule="evenodd" clip-rule="evenodd" fill="#FFFFFF" d="M120.928,107.157c0.033,0,0.066,0,0.099,0
			c-0.065,0.918,0.131,2.097-0.099,2.852C120.928,109.058,120.928,108.107,120.928,107.157z"/>
		<path fill-rule="evenodd" clip-rule="evenodd" fill="#FFFFFF" d="M120.83,112.467c0.064-0.755-0.131-1.769,0.098-2.36
			C120.863,110.861,121.059,111.875,120.83,112.467z"/>
		<path fill-rule="evenodd" clip-rule="evenodd" fill="#FFFFFF" d="M120.731,114.63c0.033,0,0.065,0,0.099,0
			c-0.064,0.624,0.129,1.506-0.099,1.967c0-0.033,0-0.065,0-0.098C120.731,115.875,120.731,115.253,120.731,114.63z"/>
		<path fill-rule="evenodd" clip-rule="evenodd" fill="#FFFFFF" d="M123.484,115.417c-0.064,0.788,0.131,1.835-0.098,2.458
			C123.451,117.088,123.256,116.041,123.484,115.417z"/>
		<path fill-rule="evenodd" clip-rule="evenodd" fill="#FFFFFF" d="M123.387,117.973c0.164,0.429,0.164,1.539,0,1.967
			C123.387,119.285,123.387,118.629,123.387,117.973z"/>
		<path fill-rule="evenodd" clip-rule="evenodd" fill="#FFFFFF" d="M120.633,118.367c0,0.557,0,1.114,0,1.672
			c-0.032,0-0.064,0-0.098,0C120.6,119.512,120.406,118.729,120.633,118.367z"/>
		<path fill-rule="evenodd" clip-rule="evenodd" fill="#FFFFFF" d="M135.088,119.055c0.229,1.508,0.033,3.441,0.099,5.113
			c-0.032,0-0.065,0-0.099,0C135.088,122.464,135.088,120.759,135.088,119.055z"/>
		<path fill-rule="evenodd" clip-rule="evenodd" fill="#FFFFFF" d="M120.535,120.039c0.033,0,0.065,0,0.098,0
			c-0.063,0.493,0.129,1.243-0.098,1.573C120.535,121.087,120.535,120.563,120.535,120.039z"/>
		<path fill-rule="evenodd" clip-rule="evenodd" fill="#FFFFFF" d="M123.288,121.809c0,0.033,0,0.065,0,0.098
			c0,0.557,0,1.114,0,1.671c-0.032,0-0.065,0-0.099,0C123.254,123.02,123.061,122.204,123.288,121.809z"/>
		<path fill-rule="evenodd" clip-rule="evenodd" fill="#FFFFFF" d="M120.437,123.283c0.163,0.17,0.163,1.011,0,1.18
			C120.437,124.07,120.437,123.677,120.437,123.283z"/>
		<path fill-rule="evenodd" clip-rule="evenodd" fill="#FFFFFF" d="M135.088,124.168c0.033,0,0.066,0,0.099,0
			c0,0.951,0,1.901,0,2.852C134.958,126.266,135.153,125.087,135.088,124.168z"/>
		<path fill-rule="evenodd" clip-rule="evenodd" fill="#FFFFFF" d="M120.437,124.562c-0.063,0.428,0.128,1.112-0.099,1.377
			C120.402,125.51,120.21,124.827,120.437,124.562z"/>
		<path fill-rule="evenodd" clip-rule="evenodd" fill="#FFFFFF" d="M123.189,125.152c-0.063,0.46,0.129,1.177-0.098,1.475
			C123.155,126.166,122.963,125.449,123.189,125.152z"/>
		<path fill-rule="evenodd" clip-rule="evenodd" fill="#FFFFFF" d="M124.075,125.545c0,10.653,0,21.306,0,31.958
			C123.911,147.08,123.911,135.968,124.075,125.545z"/>
		<path fill-rule="evenodd" clip-rule="evenodd" fill="#FFFFFF" d="M120.338,125.938c0,0.426,0,0.852,0,1.278
			c-0.032,0-0.064,0-0.098,0C120.303,126.821,120.112,126.171,120.338,125.938z"/>
		<path fill-rule="evenodd" clip-rule="evenodd" fill="#FFFFFF" d="M135.187,127.118c0.228,0.46,0.034,1.343,0.099,1.967
			C135.057,128.625,135.251,127.742,135.187,127.118z"/>
		<path fill-rule="evenodd" clip-rule="evenodd" fill="#FFFFFF" d="M122.993,128.102c0.032,0,0.065,0,0.099,0
			c-0.063,0.428,0.128,1.112-0.099,1.377c0-0.033,0-0.066,0-0.099C122.993,128.954,122.993,128.528,122.993,128.102z"/>
		<path fill-rule="evenodd" clip-rule="evenodd" fill="#FFFFFF" d="M135.285,129.085c0.227,0.33,0.034,1.08,0.098,1.573
			c-0.032,0-0.064,0-0.098,0C135.285,130.134,135.285,129.609,135.285,129.085z"/>
		<path fill-rule="evenodd" clip-rule="evenodd" fill="#FFFFFF" d="M120.142,129.675c0,0.033,0,0.066,0,0.099
			c0,0.328,0,0.655,0,0.983c-0.032,0-0.065,0-0.099,0C120.105,130.426,119.916,129.843,120.142,129.675z"/>
		<path fill-rule="evenodd" clip-rule="evenodd" fill="#FFFFFF" d="M122.895,130.757c0,0.36,0,0.721,0,1.082
			C122.732,131.701,122.732,130.895,122.895,130.757z"/>
		<path fill-rule="evenodd" clip-rule="evenodd" fill="#FFFFFF" d="M122.895,131.937c-0.063,0.331,0.127,0.914-0.098,1.082
			C122.859,132.688,122.67,132.105,122.895,131.937z"/>
		<path fill-rule="evenodd" clip-rule="evenodd" fill="#FFFFFF" d="M135.383,132.133c0.163,0.106,0.163,0.877,0,0.983
			C135.383,132.789,135.383,132.461,135.383,132.133z"/>
		<path fill-rule="evenodd" clip-rule="evenodd" fill="#FFFFFF" d="M122.797,133.117c-0.063,0.331,0.127,0.914-0.099,1.082
			C122.761,133.867,122.572,133.285,122.797,133.117z"/>
		<path fill-rule="evenodd" clip-rule="evenodd" fill="#FFFFFF" d="M122.698,135.28c-0.062,0.299,0.126,0.847-0.099,0.983
			c0-0.033,0-0.065,0-0.098C122.66,135.898,122.475,135.385,122.698,135.28z"/>
		<path fill-rule="evenodd" clip-rule="evenodd" fill="#FFFFFF" d="M122.6,136.165c0,0.033,0,0.065,0,0.098
			c-0.061,0.267,0.125,0.781-0.098,0.885C122.563,136.85,122.376,136.301,122.6,136.165z"/>
		<path fill-rule="evenodd" clip-rule="evenodd" fill="#FFFFFF" d="M132.04,146.785c0.163,1.442,0.163,3.572,0,5.015
			C132.04,150.128,132.04,148.457,132.04,146.785z"/>
		<path fill-rule="evenodd" clip-rule="evenodd" fill="#FFFFFF" d="M132.531,149.342c0.226,0.168,0.037,0.75,0.099,1.082
			C132.404,150.255,132.594,149.673,132.531,149.342z"/>
		<path fill-rule="evenodd" clip-rule="evenodd" fill="#FFFFFF" d="M132.63,151.8c-0.163-0.169-0.163-1.01,0-1.18
			C132.63,151.013,132.63,151.407,132.63,151.8z"/>
		<path fill-rule="evenodd" clip-rule="evenodd" fill="#FFFFFF" d="M132.04,156.126c0.163,3.639,0.163,7.965,0,11.604
			C132.04,163.862,132.04,159.995,132.04,156.126z"/>
		<path fill-rule="evenodd" clip-rule="evenodd" fill="#FFFFFF" d="M133.023,157.602c0-0.328,0-0.655,0-0.983
			c0.225,0.137,0.037,0.685,0.098,0.983C133.089,157.602,133.057,157.602,133.023,157.602z"/>
		<path fill-rule="evenodd" clip-rule="evenodd" fill="#FFFFFF" d="M133.023,157.602c0.033,0,0.065,0,0.098,0
			c0,0.328,0,0.656,0,0.983C132.897,158.449,133.085,157.9,133.023,157.602z"/>
		<path fill-rule="evenodd" clip-rule="evenodd" fill="#FFFFFF" d="M133.121,158.585c0.225,0.136,0.037,0.685,0.099,0.983
			C132.996,159.432,133.184,158.884,133.121,158.585z"/>
		<path fill-rule="evenodd" clip-rule="evenodd" fill="#FFFFFF" d="M133.22,159.667c0.225,0.136,0.037,0.685,0.099,0.983
			C133.094,160.514,133.281,159.965,133.22,159.667z"/>
		<path fill-rule="evenodd" clip-rule="evenodd" fill="#FFFFFF" d="M133.318,161.731c0.225,0.168,0.036,0.751,0.098,1.082
			C133.191,162.645,133.381,162.063,133.318,161.731z"/>
		<path fill-rule="evenodd" clip-rule="evenodd" fill="#FFFFFF" d="M133.613,166.354c0,0.426,0,0.852,0,1.278
			C133.45,167.43,133.45,166.555,133.613,166.354z"/>
		<path fill-rule="evenodd" clip-rule="evenodd" fill="#FFFFFF" d="M133.908,172.155c0.164,0.299,0.164,1.275,0,1.573
			C133.908,173.204,133.908,172.679,133.908,172.155z"/>
		<path fill-rule="evenodd" clip-rule="evenodd" fill="#FFFFFF" d="M134.007,175.302c0.226,0.2,0.035,0.816,0.099,1.18
			C133.879,176.281,134.069,175.665,134.007,175.302z"/>
		<path fill-rule="evenodd" clip-rule="evenodd" fill="#FFFFFF" d="M134.105,176.58c0.162,0.138,0.162,0.944,0,1.082
			C134.105,177.301,134.105,176.94,134.105,176.58z"/>
		<path fill-rule="evenodd" clip-rule="evenodd" fill="#FFFFFF" d="M135.973,179.923c0.033,0,0.066,0,0.1,0c0,0.36,0,0.721,0,1.082
			C135.847,180.836,136.035,180.254,135.973,179.923z"/>
		<path fill-rule="evenodd" clip-rule="evenodd" fill="#FFFFFF" d="M134.302,180.316c0,0.328,0,0.656,0,0.983
			C134.139,181.194,134.139,180.423,134.302,180.316z"/>
		<path fill-rule="evenodd" clip-rule="evenodd" fill="#FFFFFF" d="M134.302,181.3c0.224,0.136,0.036,0.685,0.099,0.983
			C134.176,182.147,134.363,181.599,134.302,181.3z"/>
		<path fill-rule="evenodd" clip-rule="evenodd" fill="#FFFFFF" d="M136.17,182.086c0.225,0.168,0.036,0.751,0.098,1.082
			c-0.032,0-0.064,0-0.098,0C136.17,182.808,136.17,182.447,136.17,182.086z"/>
		<path fill-rule="evenodd" clip-rule="evenodd" fill="#FFFFFF" d="M136.367,185.332c0.162,0.106,0.162,0.877,0,0.983
			C136.367,185.987,136.367,185.659,136.367,185.332z"/>
		<path fill-rule="evenodd" clip-rule="evenodd" fill="#FFFFFF" d="M117.88,186.02c1.606-0.164,3.9-0.164,5.507,0
			C121.551,186.02,119.715,186.02,117.88,186.02z"/>
		<path fill-rule="evenodd" clip-rule="evenodd" fill="#FFFFFF" d="M132.925,186.02c0.299,0.062,0.847-0.126,0.983,0.098
			C133.609,186.057,133.061,186.244,132.925,186.02z"/>
		<path fill-rule="evenodd" clip-rule="evenodd" fill="#FFFFFF" d="M134.695,188.773c0.227,0.297,0.034,1.014,0.098,1.475
			C134.566,189.951,134.759,189.234,134.695,188.773z"/>
		<path fill-rule="evenodd" clip-rule="evenodd" fill="#FFFFFF" d="M136.563,188.872c0,0.328,0,0.656,0,0.983
			C136.4,189.749,136.4,188.978,136.563,188.872z"/>
		<path fill-rule="evenodd" clip-rule="evenodd" fill="#FFFFFF" d="M134.793,190.347c0.227,0.265,0.035,0.948,0.099,1.376
			c-0.032,0-0.065,0-0.099,0C134.793,191.264,134.793,190.806,134.793,190.347z"/>
		<path fill-rule="evenodd" clip-rule="evenodd" fill="#FFFFFF" d="M134.793,191.723c0.033,0,0.066,0,0.099,0
			c0,0.459,0,0.918,0,1.377C134.665,192.835,134.856,192.151,134.793,191.723z"/>
		<path fill-rule="evenodd" clip-rule="evenodd" fill="#FFFFFF" d="M136.662,192.412c0.032,0,0.064,0,0.098,0
			c0,0.426,0,0.852,0,1.278C136.533,193.457,136.725,192.807,136.662,192.412z"/>
		<path fill-rule="evenodd" clip-rule="evenodd" fill="#FFFFFF" d="M136.858,195.165c0-0.033,0-0.066,0-0.099
			c0.227,0.265,0.034,0.949,0.099,1.377c-0.033,0-0.066,0-0.099,0C136.858,196.017,136.858,195.591,136.858,195.165z"/>
		<path fill-rule="evenodd" clip-rule="evenodd" fill="#FFFFFF" d="M135.088,197.427c0.164,0.202,0.164,1.077,0,1.278
			C135.088,198.279,135.088,197.853,135.088,197.427z"/>
		<path fill-rule="evenodd" clip-rule="evenodd" fill="#FFFFFF" d="M133.121,199.295c0.169-0.225,0.751-0.036,1.082-0.099
			C134.035,199.421,133.453,199.232,133.121,199.295z"/>
		<path fill-rule="evenodd" clip-rule="evenodd" fill="#FFFFFF" d="M137.055,199.393c0-0.033,0-0.065,0-0.098
			c0.164,0.202,0.164,1.077,0,1.278C137.055,200.18,137.055,199.787,137.055,199.393z"/>
		<path fill-rule="evenodd" clip-rule="evenodd" fill="#FFFFFF" d="M133.023,201.852c0.299-0.164,1.274-0.164,1.573,0
			C134.072,201.852,133.548,201.852,133.023,201.852z"/>
		<path fill-rule="evenodd" clip-rule="evenodd" fill="#FFFFFF" d="M132.04,202.736c0.229,3.344,0.032,7.113,0.099,10.62
			c-0.033,0-0.066,0-0.099,0C132.04,209.816,132.04,206.276,132.04,202.736z"/>
		<path fill-rule="evenodd" clip-rule="evenodd" fill="#FFFFFF" d="M137.252,205.195c0.227,0.265,0.035,0.948,0.098,1.376
			C137.123,206.307,137.314,205.623,137.252,205.195z"/>
		<path fill-rule="evenodd" clip-rule="evenodd" fill="#FFFFFF" d="M135.481,205.883c0.228,0.395,0.034,1.211,0.099,1.77
			c-0.033,0-0.066,0-0.099,0C135.481,207.063,135.481,206.473,135.481,205.883z"/>
		<path fill-rule="evenodd" clip-rule="evenodd" fill="#FFFFFF" d="M137.35,206.67c0.164,0.202,0.164,1.077,0,1.278
			C137.35,207.522,137.35,207.096,137.35,206.67z"/>
		<path fill-rule="evenodd" clip-rule="evenodd" fill="#FFFFFF" d="M135.481,207.653c0.032,0,0.065,0,0.099,0
			c0,0.492,0,0.983,0,1.475C135.354,208.831,135.545,208.114,135.481,207.653z"/>
		<path fill-rule="evenodd" clip-rule="evenodd" fill="#FFFFFF" d="M137.547,211.095c0-0.033,0-0.065,0-0.098
			c0.227,0.297,0.034,1.014,0.098,1.475c-0.032,0-0.064,0-0.098,0C137.547,212.013,137.547,211.554,137.547,211.095z"/>
		<path fill-rule="evenodd" clip-rule="evenodd" fill="#FFFFFF" d="M137.547,212.472c0.033,0,0.065,0,0.098,0
			c0,0.492,0,0.983,0,1.475C137.418,213.649,137.61,212.932,137.547,212.472z"/>
		<path fill-rule="evenodd" clip-rule="evenodd" fill="#FFFFFF" d="M132.04,213.356c0.032,0,0.065,0,0.099,0
			c0,0.328,0,0.656,0,0.983C131.914,214.204,132.102,213.655,132.04,213.356z"/>
		<path fill-rule="evenodd" clip-rule="evenodd" fill="#FFFFFF" d="M137.645,213.946c0.228,0.298,0.035,1.015,0.099,1.475
			C137.516,215.124,137.709,214.407,137.645,213.946z"/>
		<path fill-rule="evenodd" clip-rule="evenodd" fill="#FFFFFF" d="M137.743,215.421c0.228,0.298,0.034,1.014,0.099,1.475
			c-0.033,0-0.066,0-0.099,0C137.743,216.405,137.743,215.913,137.743,215.421z"/>
		<path fill-rule="evenodd" clip-rule="evenodd" fill="#FFFFFF" d="M133.318,217.388c0.266-0.164,1.209-0.164,1.475,0
			C134.302,217.388,133.811,217.388,133.318,217.388z"/>
		<path fill-rule="evenodd" clip-rule="evenodd" fill="#FFFFFF" d="M135.973,219.65c0-0.524,0-1.049,0-1.573
			C136.137,218.375,136.137,219.352,135.973,219.65z"/>
		<path fill-rule="evenodd" clip-rule="evenodd" fill="#FFFFFF" d="M118.47,220.043c0.886-0.164,2.458-0.164,3.344,0
			C120.699,220.043,119.584,220.043,118.47,220.043z"/>
		<path fill-rule="evenodd" clip-rule="evenodd" fill="#FFFFFF" d="M117.191,220.142c0.201-0.226,0.816-0.036,1.18-0.099
			C118.172,220.269,117.555,220.079,117.191,220.142z"/>
		<path fill-rule="evenodd" clip-rule="evenodd" fill="#FFFFFF" d="M121.912,220.043c0.491,0,0.982,0,1.475,0
			C123.121,220.207,122.178,220.207,121.912,220.043z"/>
		<path fill-rule="evenodd" clip-rule="evenodd" fill="#FFFFFF" d="M133.416,220.043c0.689,0,1.377,0,2.065,0
			C135.021,220.207,133.877,220.207,133.416,220.043z"/>
		<path fill-rule="evenodd" clip-rule="evenodd" fill="#FFFFFF" d="M143.84,224.468c0.656-0.229,1.736-0.034,2.557-0.099
			C145.74,224.598,144.66,224.403,143.84,224.468z"/>
		<path fill-rule="evenodd" clip-rule="evenodd" fill="#FFFFFF" d="M118.175,232.236c1.541-0.164,3.769-0.164,5.31,0
			C121.715,232.236,119.945,232.236,118.175,232.236z"/>
		<path fill-rule="evenodd" clip-rule="evenodd" fill="#FFFFFF" d="M138.924,233.023c0.032,0,0.064,0,0.098,0
			c0,0.524,0,1.049,0,1.574C138.795,234.267,138.987,233.517,138.924,233.023z"/>
		<path fill-rule="evenodd" clip-rule="evenodd" fill="#FFFFFF" d="M136.662,234.105c0.227,0.265,0.034,0.948,0.098,1.376
			c-0.033,0-0.065,0-0.098,0C136.662,235.022,136.662,234.563,136.662,234.105z"/>
		<path fill-rule="evenodd" clip-rule="evenodd" fill="#FFFFFF" d="M136.662,235.481c0.032,0,0.064,0,0.098,0c0,0.59,0,1.18,0,1.77
			c0,0.033,0,0.065,0,0.098C136.532,236.922,136.727,236.073,136.662,235.481z"/>
		<path fill-rule="evenodd" clip-rule="evenodd" fill="#FFFFFF" d="M124.271,235.58c0,3.54,0,7.08,0,10.62
			C124.107,242.889,124.107,238.891,124.271,235.58z"/>
		<path fill-rule="evenodd" clip-rule="evenodd" fill="#FFFFFF" d="M139.12,236.17c0-0.033,0-0.066,0-0.099
			c0.227,0.298,0.034,1.015,0.099,1.475c-0.033,0-0.066,0-0.099,0C139.12,237.087,139.12,236.629,139.12,236.17z"/>
		<path fill-rule="evenodd" clip-rule="evenodd" fill="#FFFFFF" d="M132.531,236.76c0.033,0,0.066,0,0.099,0
			c0,0.754,0,1.508,0,2.262C132.401,238.463,132.596,237.482,132.531,236.76z"/>
		<path fill-rule="evenodd" clip-rule="evenodd" fill="#FFFFFF" d="M136.858,239.021c0.228,0.33,0.034,1.08,0.099,1.573
			C136.729,240.265,136.922,239.515,136.858,239.021z"/>
		<path fill-rule="evenodd" clip-rule="evenodd" fill="#FFFFFF" d="M136.957,242.07c-0.164-0.202-0.164-1.077,0-1.278
			C136.957,241.218,136.957,241.644,136.957,242.07z"/>
		<path fill-rule="evenodd" clip-rule="evenodd" fill="#FFFFFF" d="M132.729,241.48c0.163,0.461,0.163,1.604,0,2.065
			C132.729,242.856,132.729,242.168,132.729,241.48z"/>
		<path fill-rule="evenodd" clip-rule="evenodd" fill="#FFFFFF" d="M139.514,244.528c0,0.426,0,0.852,0,1.278
			C139.35,245.605,139.35,244.73,139.514,244.528z"/>
		<path fill-rule="evenodd" clip-rule="evenodd" fill="#FFFFFF" d="M132.826,245.708c0.164,0.461,0.164,1.604,0,2.065
			C132.826,247.085,132.826,246.396,132.826,245.708z"/>
		<path fill-rule="evenodd" clip-rule="evenodd" fill="#FFFFFF" d="M139.514,245.905c0.163,0.494,0.163,1.669,0,2.163
			C139.514,247.347,139.514,246.626,139.514,245.905z"/>
		<path fill-rule="evenodd" clip-rule="evenodd" fill="#FFFFFF" d="M124.764,248.461c0-0.033,0-0.065,0-0.098
			c1.704,0.065,3.67-0.131,5.211,0.098C128.238,248.461,126.5,248.461,124.764,248.461z"/>
		<path fill-rule="evenodd" clip-rule="evenodd" fill="#FFFFFF" d="M137.35,53.172c-0.377-0.377-1.385-0.123-2.064-0.197
			c0-0.033,0-0.065,0-0.098C135.965,52.983,137.121,52.614,137.35,53.172z"/>
		<path fill-rule="evenodd" clip-rule="evenodd" fill="#FFFFFF" d="M123.879,54.647c0.294,6.261-0.099,13.209,0.196,19.47
			c-0.08-0.019-0.099-0.099-0.196-0.098C123.879,67.561,123.879,61.104,123.879,54.647z"/>
		<path fill-rule="evenodd" clip-rule="evenodd" fill="#FFFFFF" d="M123.879,74.019c0.098,0,0.116,0.08,0.196,0.098
			c-0.064,0.559,0.129,1.375-0.099,1.77C123.925,75.283,124.089,74.463,123.879,74.019z"/>
		<path fill-rule="evenodd" clip-rule="evenodd" fill="#FFFFFF" d="M133.22,214.733c-0.299-0.095-0.997,0.21-0.983-0.197
			c0.176,0.251,0.918-0.065,1.082,0.197C133.285,214.733,133.253,214.733,133.22,214.733z"/>
		<path fill-rule="evenodd" clip-rule="evenodd" fill="#FFFFFF" d="M128.303,6.562c0.063-0.363-0.127-0.979,0.099-1.18
			C128.339,5.745,128.529,6.361,128.303,6.562z"/>
		<path fill-rule="evenodd" clip-rule="evenodd" fill="#FFFFFF" d="M129.188,10.2c0,0.328,0,0.656,0,0.983
			c-0.225-0.136-0.037-0.685-0.099-0.983C129.123,10.2,129.155,10.2,129.188,10.2z"/>
		<path fill-rule="evenodd" clip-rule="evenodd" fill="#FFFFFF" d="M129.188,11.184c0.226,0.201,0.035,0.816,0.099,1.18
			C129.061,12.163,129.251,11.547,129.188,11.184z"/>
		<path fill-rule="evenodd" clip-rule="evenodd" fill="#FFFFFF" d="M127.91,13.445c0.063-0.331-0.127-0.914,0.098-1.082
			C127.945,12.695,128.135,13.277,127.91,13.445z"/>
		<path fill-rule="evenodd" clip-rule="evenodd" fill="#FFFFFF" d="M107.26,35.079c-0.215,0.277,0.041,1.024-0.196,1.278
			C107.139,35.94,106.883,35.192,107.26,35.079z"/>
		<path fill-rule="evenodd" clip-rule="evenodd" fill="#FFFFFF" d="M132.826,52.975c0.624-0.229,1.672-0.033,2.459-0.098
			c0,0.033,0,0.065,0,0.098C134.465,52.975,133.646,52.975,132.826,52.975z"/>
		<path fill-rule="evenodd" clip-rule="evenodd" fill="#FFFFFF" d="M120.731,53.172c0.592-0.164,1.867-0.164,2.458,0
			C122.371,53.172,121.551,53.172,120.731,53.172z"/>
		<path fill-rule="evenodd" clip-rule="evenodd" fill="#FFFFFF" d="M122.502,85.72c0.224,0.136,0.036,0.685,0.098,0.983
			C122.376,86.567,122.563,86.019,122.502,85.72z"/>
		<path fill-rule="evenodd" clip-rule="evenodd" fill="#FFFFFF" d="M132.04,56.909c0.229,9.768,0.032,19.961,0.099,29.893
			C131.908,77.034,132.105,66.84,132.04,56.909z"/>
		<path fill-rule="evenodd" clip-rule="evenodd" fill="#FFFFFF" d="M123.484,98.897c0.227,0.265,0.035,0.948,0.1,1.376
			C123.356,100.008,123.549,99.325,123.484,98.897z"/>
		<path fill-rule="evenodd" clip-rule="evenodd" fill="#FFFFFF" d="M120.928,107.157c0.066-1.246-0.131-2.753,0.099-3.835
			c0,1.278,0,2.557,0,3.835C120.994,107.157,120.961,107.157,120.928,107.157z"/>
		<path fill-rule="evenodd" clip-rule="evenodd" fill="#FFFFFF" d="M120.731,114.63c0.065-0.689-0.13-1.638,0.099-2.163
			c0,0.721,0,1.442,0,2.163C120.797,114.63,120.765,114.63,120.731,114.63z"/>
		<path fill-rule="evenodd" clip-rule="evenodd" fill="#FFFFFF" d="M120.633,118.367c0.064-0.591-0.129-1.44,0.099-1.868
			c0,0.033,0,0.065,0,0.098C120.668,117.155,120.861,117.972,120.633,118.367z"/>
		<path fill-rule="evenodd" clip-rule="evenodd" fill="#FFFFFF" d="M120.437,123.185c0.063-0.493-0.129-1.243,0.099-1.573
			C120.471,122.105,120.664,122.855,120.437,123.185z"/>
		<path fill-rule="evenodd" clip-rule="evenodd" fill="#FFFFFF" d="M122.993,128.102c0.063-0.428-0.128-1.111,0.099-1.376
			c0,0.459,0,0.917,0,1.376C123.059,128.102,123.025,128.102,122.993,128.102z"/>
		<path fill-rule="evenodd" clip-rule="evenodd" fill="#FFFFFF" d="M120.142,129.773c0-0.033,0-0.065,0-0.099
			c0.063-0.331-0.126-0.913,0.099-1.082C120.178,128.957,120.367,129.573,120.142,129.773z"/>
		<path fill-rule="evenodd" clip-rule="evenodd" fill="#FFFFFF" d="M119.945,132.92c0.063-0.331-0.127-0.913,0.098-1.082
			C119.98,132.169,120.17,132.752,119.945,132.92z"/>
		<path fill-rule="evenodd" clip-rule="evenodd" fill="#FFFFFF" d="M119.945,133.805c-0.063,0.299,0.125,0.847-0.099,0.983
			C119.908,134.489,119.721,133.941,119.945,133.805z"/>
		<path fill-rule="evenodd" clip-rule="evenodd" fill="#FFFFFF" d="M135.481,133.313c0.228,0.428,0.034,1.277,0.099,1.868
			C135.352,134.754,135.546,133.905,135.481,133.313z"/>
		<path fill-rule="evenodd" clip-rule="evenodd" fill="#FFFFFF" d="M133.613,166.157c-0.225-0.168-0.036-0.75-0.098-1.082
			C133.74,165.243,133.551,165.826,133.613,166.157z"/>
		<path fill-rule="evenodd" clip-rule="evenodd" fill="#FFFFFF" d="M132.04,182.677c0.065-3.704-0.132-7.67,0.099-11.21
			C132.072,175.17,132.27,179.137,132.04,182.677z"/>
		<path fill-rule="evenodd" clip-rule="evenodd" fill="#FFFFFF" d="M135.973,179.923c0.061-0.617-0.074-1.04-0.098-1.573
			c0.266,0.325,0.186,0.994,0.197,1.573C136.039,179.923,136.006,179.923,135.973,179.923z"/>
		<path fill-rule="evenodd" clip-rule="evenodd" fill="#FFFFFF" d="M136.268,184.25c0.226,0.168,0.037,0.75,0.1,1.082
			C136.142,185.163,136.33,184.581,136.268,184.25z"/>
		<path fill-rule="evenodd" clip-rule="evenodd" fill="#FFFFFF" d="M136.367,186.512c0.225,0.168,0.035,0.75,0.098,1.082
			C136.24,187.425,136.429,186.843,136.367,186.512z"/>
		<path fill-rule="evenodd" clip-rule="evenodd" fill="#FFFFFF" d="M136.465,187.593c0.226,0.2,0.035,0.816,0.099,1.18
			C136.338,188.573,136.527,187.957,136.465,187.593z"/>
		<path fill-rule="evenodd" clip-rule="evenodd" fill="#FFFFFF" d="M136.662,191.035c0,0.033,0,0.066,0,0.099
			c-0.227-0.201-0.036-0.817-0.099-1.18C136.788,190.122,136.6,190.704,136.662,191.035z"/>
		<path fill-rule="evenodd" clip-rule="evenodd" fill="#FFFFFF" d="M136.662,192.412c0-0.426,0-0.852,0-1.278
			c0-0.033,0-0.065,0-0.099c0.227,0.265,0.034,0.949,0.098,1.377C136.727,192.412,136.694,192.412,136.662,192.412z"/>
		<path fill-rule="evenodd" clip-rule="evenodd" fill="#FFFFFF" d="M136.858,195.066c0,0.033,0,0.065,0,0.099
			c-0.227-0.265-0.035-0.949-0.099-1.377C136.986,194.021,136.795,194.671,136.858,195.066z"/>
		<path fill-rule="evenodd" clip-rule="evenodd" fill="#FFFFFF" d="M137.055,199.295c0,0.033,0,0.065,0,0.098
			c-0.227-0.297-0.034-1.014-0.098-1.475C137.184,198.183,136.992,198.867,137.055,199.295z"/>
		<path fill-rule="evenodd" clip-rule="evenodd" fill="#FFFFFF" d="M137.153,202.245c0.228,0.298,0.034,1.015,0.099,1.475
			C137.024,203.422,137.217,202.706,137.153,202.245z"/>
		<path fill-rule="evenodd" clip-rule="evenodd" fill="#FFFFFF" d="M137.547,210.997c0,0.033,0,0.065,0,0.098
			c-0.228-0.33-0.035-1.08-0.099-1.573C137.676,209.819,137.482,210.536,137.547,210.997z"/>
		<path fill-rule="evenodd" clip-rule="evenodd" fill="#FFFFFF" d="M137.842,218.372c-0.227-0.297-0.035-1.014-0.099-1.475
			c0.032,0,0.065,0,0.099,0C137.842,217.388,137.842,217.88,137.842,218.372z"/>
		<path fill-rule="evenodd" clip-rule="evenodd" fill="#FFFFFF" d="M142.66,220.535c-0.158-0.694-0.138-1.567-0.197-2.36
			C142.687,218.804,142.665,219.677,142.66,220.535z"/>
		<path fill-rule="evenodd" clip-rule="evenodd" fill="#FFFFFF" d="M137.842,218.372c0.227,0.232,0.035,0.882,0.098,1.278
			C137.714,219.417,137.904,218.767,137.842,218.372z"/>
		<path fill-rule="evenodd" clip-rule="evenodd" fill="#FFFFFF" d="M139.12,236.071c0,0.033,0,0.066,0,0.099
			c-0.228-0.33-0.034-1.08-0.099-1.573C139.248,234.894,139.057,235.611,139.12,236.071z"/>
		<path fill-rule="evenodd" clip-rule="evenodd" fill="#FFFFFF" d="M132.531,236.76c0-0.688,0-1.376,0-2.065
			c0.229,0.493,0.034,1.408,0.099,2.065C132.598,236.76,132.564,236.76,132.531,236.76z"/>
		<path fill-rule="evenodd" clip-rule="evenodd" fill="#FFFFFF" d="M139.219,238.923c0.227,0.297,0.034,1.014,0.098,1.475
			C139.09,240.101,139.281,239.384,139.219,238.923z"/>
		<path fill-rule="evenodd" clip-rule="evenodd" fill="#FFFFFF" d="M132.63,239.021c0.229,0.624,0.034,1.671,0.099,2.458
			C132.5,240.856,132.695,239.809,132.63,239.021z"/>
		<path fill-rule="evenodd" clip-rule="evenodd" fill="#FFFFFF" d="M139.316,241.676c0.227,0.265,0.035,0.949,0.099,1.377
			C139.188,242.788,139.38,242.104,139.316,241.676z"/>
		<path fill-rule="evenodd" clip-rule="evenodd" fill="#FFFFFF" d="M139.415,243.053c0.227,0.265,0.034,0.948,0.099,1.376
			C139.287,244.165,139.479,243.481,139.415,243.053z"/>
		<path fill-rule="evenodd" clip-rule="evenodd" fill="#FFFFFF" d="M108.047,247.281c0.525,0.064,1.309-0.129,1.672,0.099
			C109.192,247.316,108.409,247.509,108.047,247.281z"/>
		<path fill-rule="evenodd" clip-rule="evenodd" fill="#FFFFFF" d="M120.928,99.782c0.229,0.656,0.034,1.736,0.099,2.557
			C120.798,101.682,120.993,100.602,120.928,99.782z"/>
		<path fill-rule="evenodd" clip-rule="evenodd" fill="#FFFFFF" d="M123.288,123.578c-0.063,0.494,0.129,1.244-0.099,1.574
			c0-0.524,0-1.049,0-1.574C123.223,123.578,123.256,123.578,123.288,123.578z"/>
		<path fill-rule="evenodd" clip-rule="evenodd" fill="#FFFFFF" d="M132.335,146.588c0.228,0.33,0.034,1.08,0.099,1.573
			c0,0.033,0,0.065,0,0.098C132.206,147.897,132.398,147.114,132.335,146.588z"/>
		<path fill-rule="evenodd" clip-rule="evenodd" fill="#FFFFFF" d="M134.597,186.708c0.228,0.493,0.034,1.409,0.099,2.065
			C134.467,188.28,134.661,187.365,134.597,186.708z"/>
		<path fill-rule="evenodd" clip-rule="evenodd" fill="#FFFFFF" d="M132.04,54.057c0,0.951,0,1.901,0,2.852
			C131.876,56.186,131.876,54.779,132.04,54.057z"/>
		<path fill-rule="evenodd" clip-rule="evenodd" fill="#FFFFFF" d="M135.187,101.552c-0.065,0.82,0.13,1.9-0.099,2.557
			C135.153,103.288,134.958,102.208,135.187,101.552z"/>
		<path fill-rule="evenodd" clip-rule="evenodd" fill="#FFFFFF" d="M123.387,119.94c-0.064,0.624,0.129,1.506-0.099,1.967
			c0-0.033,0-0.065,0-0.098C123.353,121.217,123.158,120.368,123.387,119.94z"/>
		<path fill-rule="evenodd" clip-rule="evenodd" fill="#FFFFFF" d="M133.416,163.895c0.227,0.2,0.036,0.816,0.1,1.18
			C133.289,164.875,133.479,164.258,133.416,163.895z"/>
		<path fill-rule="evenodd" clip-rule="evenodd" fill="#FFFFFF" d="M134.105,177.76c0.225,0.201,0.035,0.817,0.098,1.18
			C133.978,178.739,134.168,178.123,134.105,177.76z"/>
		<path fill-rule="evenodd" clip-rule="evenodd" fill="#FFFFFF" d="M118.666,183.365c0.82,0.065,1.9-0.13,2.557,0.099
			C120.403,183.398,119.323,183.593,118.666,183.365z"/>
		<path fill-rule="evenodd" clip-rule="evenodd" fill="#FFFFFF" d="M124.075,186.708c0.229,5.212,0.032,10.85,0.099,16.225
			C123.943,197.722,124.141,192.084,124.075,186.708z"/>
		<path fill-rule="evenodd" clip-rule="evenodd" fill="#FFFFFF" d="M134.99,195.952c0.227,0.297,0.034,1.014,0.098,1.475
			C134.861,197.129,135.054,196.412,134.99,195.952z"/>
		<path fill-rule="evenodd" clip-rule="evenodd" fill="#FFFFFF" d="M134.892,233.22c0.169-0.163,1.011-0.163,1.181,0
			C135.678,233.22,135.285,233.22,134.892,233.22z"/>
		<path fill-rule="evenodd" clip-rule="evenodd" fill="#FFFFFF" d="M128.106,11.184c-0.063,0.363,0.128,0.979-0.099,1.18
			c0-0.394,0-0.787,0-1.18C128.041,11.184,128.074,11.184,128.106,11.184z"/>
		<path fill-rule="evenodd" clip-rule="evenodd" fill="#FFFFFF" d="M123.977,90.833c0.229,4.72,0.033,9.866,0.099,14.75
			C123.846,100.863,124.042,95.717,123.977,90.833z"/>
		<path fill-rule="evenodd" clip-rule="evenodd" fill="#FFFFFF" d="M123.387,97.815c0.225,0.168,0.036,0.751,0.098,1.082
			C123.26,98.729,123.449,98.146,123.387,97.815z"/>
		<path fill-rule="evenodd" clip-rule="evenodd" fill="#FFFFFF" d="M120.338,127.217c-0.063,0.396,0.129,1.045-0.098,1.278
			c0-0.426,0-0.853,0-1.278C120.273,127.217,120.306,127.217,120.338,127.217z"/>
		<path fill-rule="evenodd" clip-rule="evenodd" fill="#FFFFFF" d="M122.993,129.479c-0.063,0.363,0.128,0.979-0.099,1.18
			c0.063-0.396-0.127-1.045,0.099-1.278C122.993,129.413,122.993,129.445,122.993,129.479z"/>
		<path fill-rule="evenodd" clip-rule="evenodd" fill="#FFFFFF" d="M135.383,130.658c0,0.492,0,0.983,0,1.475
			c-0.227-0.297-0.034-1.014-0.098-1.475C135.318,130.658,135.351,130.658,135.383,130.658z"/>
		<path fill-rule="evenodd" clip-rule="evenodd" fill="#FFFFFF" d="M120.142,130.757c-0.063,0.331,0.127,0.913-0.099,1.082
			c0-0.36,0-0.721,0-1.082C120.076,130.757,120.109,130.757,120.142,130.757z"/>
		<path fill-rule="evenodd" clip-rule="evenodd" fill="#FFFFFF" d="M132.434,148.162c0.225,0.168,0.035,0.75,0.098,1.082
			c-0.224-0.136-0.036-0.684-0.098-0.983C132.434,148.227,132.434,148.194,132.434,148.162z"/>
		<path fill-rule="evenodd" clip-rule="evenodd" fill="#FFFFFF" d="M134.203,178.94c0.226,0.2,0.035,0.816,0.099,1.18
			C134.076,179.919,134.266,179.303,134.203,178.94z"/>
		<path fill-rule="evenodd" clip-rule="evenodd" fill="#FFFFFF" d="M136.268,183.168c0,0.36,0,0.721,0,1.082
			c-0.225-0.168-0.035-0.75-0.098-1.082C136.203,183.168,136.235,183.168,136.268,183.168z"/>
		<path fill-rule="evenodd" clip-rule="evenodd" fill="#FFFFFF" d="M121.223,183.463c0.494,0.064,1.244-0.129,1.574,0.098
			C122.303,183.498,121.553,183.69,121.223,183.463z"/>
		<path fill-rule="evenodd" clip-rule="evenodd" fill="#FFFFFF" d="M134.892,193.1c0.227,0.265,0.034,0.948,0.099,1.376
			C134.764,194.211,134.955,193.528,134.892,193.1z"/>
		<path fill-rule="evenodd" clip-rule="evenodd" fill="#FFFFFF" d="M136.957,196.443c0,0.492,0,0.983,0,1.475
			c-0.228-0.297-0.035-1.014-0.099-1.475C136.891,196.443,136.924,196.443,136.957,196.443z"/>
		<path fill-rule="evenodd" clip-rule="evenodd" fill="#FFFFFF" d="M137.055,200.77c0.227,0.297,0.035,1.014,0.099,1.475
			C136.926,201.947,137.119,201.23,137.055,200.77z"/>
		<path fill-rule="evenodd" clip-rule="evenodd" fill="#FFFFFF" d="M124.174,202.933c0.163,5.179,0.163,11.046,0,16.225
			C124.174,213.75,124.174,208.341,124.174,202.933z"/>
		<path fill-rule="evenodd" clip-rule="evenodd" fill="#FFFFFF" d="M135.383,203.622c0.229,0.558,0.034,1.54,0.099,2.262
			C135.254,205.325,135.447,204.343,135.383,203.622z"/>
		<path fill-rule="evenodd" clip-rule="evenodd" fill="#FFFFFF" d="M137.35,208.046c0.227,0.298,0.035,1.014,0.099,1.475
			C137.221,209.224,137.414,208.507,137.35,208.046z"/>
		<path fill-rule="evenodd" clip-rule="evenodd" fill="#FFFFFF" d="M135.58,209.128c0.227,0.297,0.035,1.014,0.098,1.475
			C135.451,210.306,135.644,209.589,135.58,209.128z"/>
		<path fill-rule="evenodd" clip-rule="evenodd" fill="#FFFFFF" d="M124.174,232.728c0.229,0.689,0.033,1.802,0.098,2.655
			C124.043,234.694,124.238,233.581,124.174,232.728z"/>
		<path fill-rule="evenodd" clip-rule="evenodd" fill="#FFFFFF" d="M136.76,237.251c0.228,0.363,0.034,1.146,0.099,1.672
			c-0.228-0.33-0.034-1.08-0.099-1.574C136.76,237.317,136.76,237.284,136.76,237.251z"/>
		<path fill-rule="evenodd" clip-rule="evenodd" fill="#FFFFFF" d="M139.219,237.546c0,0.459,0,0.918,0,1.377
			c-0.227-0.265-0.035-0.949-0.099-1.377C139.152,237.546,139.186,237.546,139.219,237.546z"/>
		<path fill-rule="evenodd" clip-rule="evenodd" fill="#FFFFFF" d="M136.957,242.07c0.227,0.33,0.034,1.08,0.098,1.573
			C136.828,243.313,137.021,242.563,136.957,242.07z"/>
		<path fill-rule="evenodd" clip-rule="evenodd" fill="#FFFFFF" d="M132.729,243.741c0.228,0.46,0.033,1.343,0.098,1.967
			C132.599,245.248,132.793,244.365,132.729,243.741z"/>
		<path fill-rule="evenodd" clip-rule="evenodd" fill="#FFFFFF" d="M137.153,246.298c0.227,0.265,0.034,0.949,0.099,1.377
			C137.025,247.41,137.217,246.727,137.153,246.298z"/>
		<path fill-rule="evenodd" clip-rule="evenodd" fill="#FFFFFF" d="M132.139,186.413c-0.066,3.901,0.131,8.063-0.099,11.8
			C132.105,194.313,131.908,190.15,132.139,186.413z"/>
		<path fill-rule="evenodd" clip-rule="evenodd" fill="#FFFFFF" d="M139.021,231.155c0,0.623,0,1.246,0,1.868
			c-0.033,0-0.065,0-0.098,0C138.988,232.432,138.794,231.583,139.021,231.155z"/>
		<path fill-rule="evenodd" clip-rule="evenodd" fill="#FFFFFF" d="M112.57,232.433c1.641-0.293,3.963,0.096,5.604-0.197
			C116.697,232.693,114.375,232.304,112.57,232.433z"/>
		<path fill-rule="evenodd" clip-rule="evenodd" fill="#FFFFFF" d="M123.584,112.27c-0.066,1.017,0.13,2.294-0.1,3.146
			C123.55,114.4,123.354,113.123,123.584,112.27z"/>
		<path fill-rule="evenodd" clip-rule="evenodd" fill="#FFFFFF" d="M124.075,180.611c0.163,0.429,0.163,1.539,0,1.967
			C124.075,181.923,124.075,181.267,124.075,180.611z"/>
		<path fill-rule="evenodd" clip-rule="evenodd" fill="#FFFFFF" d="M135.678,212.078c0.226,0.168,0.037,0.75,0.099,1.082
			C135.552,212.992,135.74,212.409,135.678,212.078z"/>
		<path fill-rule="evenodd" clip-rule="evenodd" fill="#FFFFFF" d="M133.318,214.733c0.557,0,1.114,0,1.672,0
			c-0.363,0.163-1.406,0.163-1.771,0C133.253,214.733,133.285,214.733,133.318,214.733z"/>
		<path fill-rule="evenodd" clip-rule="evenodd" fill="#FFFFFF" d="M133.023,233.22c0.138-0.163,0.943-0.163,1.082,0
			C133.744,233.22,133.384,233.22,133.023,233.22z"/>
		<path fill-rule="evenodd" clip-rule="evenodd" fill="#FFFFFF" d="M137.055,244.921c0.227,0.265,0.035,0.949,0.099,1.376
			C136.927,246.033,137.118,245.35,137.055,244.921z"/>
		<path fill-rule="evenodd" clip-rule="evenodd" fill="#FFFFFF" d="M124.271,246.2c0.228,0.363,0.034,1.146,0.099,1.672
			C124.143,247.509,124.336,246.726,124.271,246.2z"/>
		<path fill-rule="evenodd" clip-rule="evenodd" fill="#FFFFFF" d="M133.908,174.22c0.225,0.168,0.036,0.751,0.099,1.082
			C133.781,175.133,133.971,174.551,133.908,174.22z"/>
	</g>
</g>
</svg>
