<?xml version="1.0" encoding="utf-8"?>
<!-- Generator: Adobe Illustrator 15.1.0, SVG Export Plug-In . SVG Version: 6.00 Build 0)  -->
<!DOCTYPE svg PUBLIC "-//W3C//DTD SVG 1.1//EN" "http://www.w3.org/Graphics/SVG/1.1/DTD/svg11.dtd">
<svg version="1.1" xmlns="http://www.w3.org/2000/svg" xmlns:xlink="http://www.w3.org/1999/xlink" x="0px" y="0px" width="1000px"
	 height="286.068px" viewBox="0 0 1000 286.068" enable-background="new 0 0 1000 286.068" xml:space="preserve">
<g id="Layer_1">
</g>
<g id="sky">
</g>
<g id="Mountain">
</g>
<g id="background">
</g>
<g id="city">
	<path fill="#6B9A22" d="M-1,334H999v-69h-5v-1h-6h-5v-1h-3v-3h-8v4h-4v3h-3v-4l-1.938-2.125l-1.063,1.25V261h-7h-3h-5v4h-13v13h-6
		v-4c0,0-11-5.5-16-5.5c-4,0,0,8.5,0,8.5h-13v5h-5v-68h-3v-4h-11v-5h-14v2h-6v2h-5v2h-4v3h-5v58h-5v2h-2v-6h-9v4h-10v2h-4v5h-16v-36
		h-14v-6h-9v5h-6v-8h-6v-11h-2v-4h-4v-5h-5v-2h-11v6h-14v-3h-4v-9h-2v3h-2l1,1h-12v-20h-27v19h-13l-12,4.25V249h-9v-23l-8,7.75V222
		h-3v-3h-14v-10h-2v-4h-6l-2.25-5H607v-12l-5.25-4H587l-6,3.5V208l-3-2h-5l-4,2.25V203l-4.25-12.5l-5.75,12v2.5l-2.5-2H551v-27
		l-3-5.5V158h-14v-28h-6l-7-8.5V121h-1l-10,9h-6v78h-5v-30h-2v-29h-28v19h-8v10h-5v-74h-2v-3h-19v2h-3v28h-3v2h-3v32h-3v3h-6v27
		l-2.875,4H398v-67h-30v20h-4v26h-12v-2h-18v-27l-10.375-10H315l-4.625,5H306v6h-3v5h-7v5h-8v-4h-33v-44l-36-7.5v9.5h-4v68h-13v3
		h-19v-28h-12l-7.375-7.125L157,155h-10v21h-3v-4h-22v7h-4v-8H93v22H79v1v17h-5v3h-5v-3H52v14H37v12h-3.75H31l-1.75,1.25
		l-2.75-2.375l-3-1.313l-3.25,0.844L20.5,237H17c0,0,0-1-0.5-2s-1.5-1.875-2.5-1.875s-5,1.625-5,1.625V238v8l-4-0.25L3.625,251
		L-1,253.75V334z"/>
	<path fill="#8BB32C" d="M877,720"/>
</g>
<g id="space_needle">
	<g>
		<path fill-rule="evenodd" clip-rule="evenodd" fill="#FFFFFF" d="M406.401,43.382c-0.05-0.411,0.056-0.666,0.196-0.885
			c0.279-0.016-0.081,0.606,0.197,0.59c0.062,0.299-0.126,0.847,0.098,0.983c0,0.328,0,0.656,0,0.983
			c0.063,0.299-0.125,0.847,0.1,0.983c0.062,0.331-0.127,0.913,0.098,1.082c0,0.36,0,0.721,0,1.082
			c0.062,0.299-0.126,0.847,0.099,0.983c0.063,0.363-0.128,0.979,0.099,1.18c0.076,1.944,0.081,3.701,0.295,5.703
			c0.111,1.055,0.525,4.276,1.18,4.818c1.086,0.9,3.212,0.132,4.425,0.885c0.602,0.374,0.478,1.436,1.081,1.967
			c0.694,0.609,1.356,0.104,2.164,0.787c0.364,1.162-2.318,1.831-2.262,3.048c0.031,0.681,1.578,1.247,2.359,1.573
			c3.451,1.44,6.738,2.895,9.932,3.737c1.197,1.163,2.995,1.726,4.818,2.262c0.176,1.219-0.456,1.967-0.196,2.753
			c0.48,1.45,4.774,1.103,4.917,2.557c0.102,1.042-2.618,1.61-3.344,1.77c-2.385,0.524-5.938-0.166-5.506,2.753
			c0.193,1.307,2.758,1.531,2.852,2.36c0.133,1.177-3.341,1.61-4.426,1.868c-1.82,0.433-3.842,0.974-5.015,1.278
			c-0.989,3.854-1.392,7.833-1.967,11.8c-1.131,7.796-2.254,16.04-3.54,24.091c-0.633,3.963-1.632,7.749-1.868,11.8
			c-0.163,0.202-0.163,1.077,0,1.278c0,0.033,0,0.065,0,0.098c-0.229,0.656-0.033,1.736-0.099,2.557c0,0.033,0,0.065,0,0.098
			c-0.164,4.72-0.164,10.128,0,14.849c0,1.704,0,3.409,0,5.113c0.065,0.918-0.13,2.097,0.099,2.852c0,0.033,0,0.065,0,0.098
			c0.064,0.624-0.13,1.506,0.099,1.967c0,0.524,0,1.049,0,1.573c0.063,0.461-0.129,1.178,0.098,1.475c0,0.328,0,0.656,0,0.983
			c0.022,0.076,0.003,0.194,0.099,0.197c0.064,0.591-0.13,1.44,0.099,1.868c2.498,27.277,4.508,55.527,6.883,82.993
			c0.06,0.793,0.039,1.666,0.197,2.36c0.205,1.208,2.231,1.396,3.441,1.77c1.426,0.441,2.731,0.723,3.54,1.278
			c-0.567,0.777-2.15,0.538-3.245,0.787c-0.82,0.065-1.9-0.13-2.557,0.099c-1.525,0.277-0.541,4.242-0.393,5.998
			c0.353,4.182,0.663,7.932,0.885,12.095c0.095,1.79,0.702,4.968,0.196,5.9c-0.59,0-1.181,0-1.771,0
			c-0.186-0.174-0.629-0.091-0.786-0.295c-0.655-3.606-0.964-9.181-1.278-13.668c-0.092-1.316-0.312-5.205-1.672-3.343
			c-0.228,0.428-0.033,1.277-0.098,1.868c0.063,0.494-0.129,1.244,0.098,1.574c0.064,0.493-0.129,1.243,0.099,1.573
			c0,0.459,0,0.917,0,1.376c0.063,0.428-0.128,1.112,0.099,1.377c0.063,0.46-0.129,1.177,0.098,1.475c0,0.426,0,0.853,0,1.278
			c0.063,0.428-0.128,1.112,0.099,1.377c0.063,0.428-0.128,1.111,0.099,1.376c0,0.033,0,0.065,0,0.099
			c-0.164,0.202-0.164,1.077,0,1.278c0,0.033,0,0.065,0,0.098c0,0.721,0,1.442,0,2.163c0,0.099-0.08,0.117-0.099,0.197
			c-0.061,0.136-0.379,0.015-0.394,0.197c-0.36,0-0.721,0-1.082,0c-0.175-0.316-0.646-0.336-0.688-0.787
			c-0.064-0.428,0.128-1.112-0.099-1.377c-0.063-0.428,0.128-1.111-0.099-1.376c0-0.426,0-0.852,0-1.278
			c-0.063-0.493,0.129-1.243-0.098-1.573c0-0.426,0-0.852,0-1.278c0-0.065,0-0.131,0-0.197c-0.064-0.493,0.129-1.243-0.099-1.573
			c0-0.033,0-0.065,0-0.098c-0.064-0.526,0.129-1.309-0.099-1.672c0-0.59,0-1.18,0-1.77c-0.063-0.428,0.129-1.111-0.098-1.376
			c0.012-0.505-0.195-0.789-0.59-0.885c-0.17-0.163-1.012-0.163-1.181,0c-0.263,0-0.524,0-0.786,0c-0.139-0.163-0.944-0.163-1.082,0
			c-0.552,0.04-0.724,0.979-0.492,1.475c0,0.688,0,1.376,0,2.065c0.064,0.722-0.13,1.703,0.099,2.262
			c0.065,0.787-0.13,1.834,0.099,2.458c0,0.688,0,1.376,0,2.065c0,0.065,0,0.131,0,0.196c0.064,0.624-0.13,1.506,0.098,1.967
			c0,0.688,0,1.377,0,2.065c-0.134,0.325-0.363,0.554-0.688,0.688c-0.722,0-1.442,0-2.164,0c-1.541-0.229-3.507-0.033-5.211-0.098
			c-0.202-0.093-0.273-0.318-0.394-0.492c-0.064-0.526,0.129-1.309-0.099-1.672c0-3.54,0-7.08,0-10.62c0-0.065,0-0.131,0-0.196
			c-0.064-0.853,0.131-1.966-0.098-2.655c-0.042-0.352-0.314-0.473-0.689-0.492c-1.541-0.164-3.769-0.164-5.31,0
			c-1.642,0.292-3.964-0.096-5.604,0.197c-0.879,0.802-0.649,2.218-0.787,3.442c-0.412,3.666-0.809,7.912-1.377,11.406
			c-0.23,0.032-0.369,0.156-0.688,0.099c-0.363-0.228-1.146-0.034-1.672-0.099c-0.147-0.115-0.402-0.122-0.492-0.295
			c-0.078-3.813,0.668-8.006,1.18-11.997c0.152-1.188,0.632-3.296,0.492-4.228c-0.152-1.02-1.857-1.581-1.967-2.557
			c-0.107-0.958,0.929-1.49,0.983-2.36c0.058-0.912-0.729-1.022-1.081-1.573c0.728-0.681,1.801-0.584,2.458-1.18
			c0.78-0.708,0.88-3.233,1.081-5.113c0.6-5.58,1.198-11.2,1.771-16.225c2.556-22.444,5.345-44.716,7.375-66.965
			c0.224-0.137,0.036-0.685,0.099-0.983c0-0.295,0-0.59,0-0.885c0.225-0.168,0.035-0.75,0.098-1.082
			c0.226-0.168,0.036-0.75,0.099-1.082c0-0.328,0-0.656,0-0.983c0.226-0.201,0.036-0.817,0.099-1.18c0-0.033,0-0.065,0-0.098
			c0.227-0.233,0.035-0.883,0.098-1.278c0-0.426,0-0.853,0-1.278c0.227-0.265,0.035-0.949,0.099-1.377c0-0.033,0-0.065,0-0.098
			c0.163-0.169,0.163-1.01,0-1.18c0-0.033,0-0.065,0-0.098c0.228-0.33,0.034-1.08,0.099-1.573c0.227-0.33,0.034-1.08,0.098-1.573
			c0-0.558,0-1.115,0-1.672c0.229-0.395,0.035-1.211,0.099-1.77c0.228-0.46,0.034-1.343,0.099-1.967c0-0.721,0-1.442,0-2.163
			c0.229-0.591,0.033-1.605,0.098-2.36c0-0.033,0-0.066,0-0.099c0.229-0.754,0.033-1.933,0.099-2.852c0-1.278,0-2.557,0-3.835
			c0.163-0.106,0.163-0.877,0-0.983c-0.064-0.82,0.13-1.9-0.099-2.557c-1.502-15.971-3.504-31.78-5.604-46.807
			c-1.897-1.25-6.619-1.417-9.146-2.458c-0.319-0.132-1.563-0.789-1.572-1.279c-0.029-1.284,2.773-0.889,3.048-2.163
			c0.53-1.979-0.577-2.324-2.065-2.655c-2.266-0.505-5.314-0.86-6.588-1.869c0-0.098,0-0.197,0-0.295
			c1.492-1.098,4.151-1.027,5.408-2.36c-0.01-1.023-0.691-1.685-0.295-2.458c0.504-0.981,2.215-0.22,2.95-1.082
			c0.237-0.254-0.019-1.001,0.196-1.278c0-0.099,0.08-0.117,0.099-0.197c3.021-0.563,5.141-1.288,8.358-2.36
			c1.449-0.483,5.359-1.377,5.506-2.557c0.207-1.647-2.133-1.752-2.359-3.245c0.754-0.847,1.576-0.376,2.163-1.082
			c0.425-0.511,0.288-1.459,0.787-1.869c1.208-0.989,3.548-0.085,4.72-0.983c0.335-0.257,0.564-1.331,0.688-1.967
			c0.468-2.412,0.613-4.799,0.688-7.375c0.225-0.168,0.035-0.75,0.098-1.082c0.227-0.201,0.036-0.817,0.099-1.18
			c0-0.394,0-0.787,0-1.18c0.226-0.2,0.036-0.816,0.099-1.18c0.226-0.201,0.035-0.817,0.098-1.18c0-0.36,0-0.721,0-1.082
			C406.529,44.361,406.339,43.745,406.401,43.382z M410.826,90.975c-0.593,0.03-0.828,0.417-0.786,1.082
			c-0.164,0.723-0.164,2.129,0,2.852c0.065,9.932-0.132,20.125,0.099,29.893c-0.01,0.269,0.164,0.198,0,0.394
			c0.886-1.01,0.889-2.538,1.081-3.835c1.499-10.086,2.872-19.949,4.13-30.188c-0.229-0.558-1.385-0.189-2.064-0.295
			C412.498,90.942,411.45,90.747,410.826,90.975z M398.731,91.172c-0.136-0.004-0.216,0.046-0.295,0.098
			c-0.575,1.183-0.097,2.501,0,3.737c0.756,9.666,1.222,19.237,2.065,28.713c0.062,0.299-0.126,0.847,0.098,0.983
			c0.163,3.803,0.568,7.364,0.787,11.111c0.063,0.331-0.127,0.914,0.098,1.082c0.064,0.428-0.128,1.111,0.1,1.376
			c0,0.656,0,1.311,0,1.967c0,1.835,0,3.671,0,5.506c0,1.508,0,3.016,0,4.523c-0.229,0.853-0.034,2.13-0.1,3.146
			c-0.229,0.624-0.033,1.671-0.098,2.458c0,0.033,0,0.065,0,0.098c0,0.656,0,1.312,0,1.967c-0.229,0.428-0.034,1.277-0.099,1.869
			c-0.228,0.395-0.034,1.211-0.099,1.77c0,0.525,0,1.049,0,1.574c-0.227,0.297-0.034,1.014-0.098,1.475c0,0.033,0,0.066,0,0.099
			c-0.227,0.265-0.035,0.948-0.099,1.376c0,0.426,0,0.853,0,1.278c-0.226,0.233-0.035,0.883-0.099,1.278c0,0.033,0,0.066,0,0.099
			c-0.162,0.138-0.162,0.944,0,1.082c0,0.033,0,0.065,0,0.098c-0.225,0.168-0.035,0.751-0.098,1.082c0,0.033,0,0.065,0,0.098
			c-0.225,0.168-0.036,0.75-0.099,1.082c0,0.361,0,0.721,0,1.082c-0.224,0.105-0.038,0.618-0.099,0.885
			c-0.224,0.136-0.036,0.685-0.098,0.983c-0.838,11.502-2.188,23.234-3.344,34.613c-0.385,3.794-1.047,7.562-1.082,11.308
			c0.208,0.087,0.291,0.299,0.59,0.295c0.657,0.229,1.737,0.034,2.557,0.099c0.33,0.227,1.08,0.034,1.574,0.098
			c0.402,0.01,0.806,0.02,1.082-0.098c0.141-0.219,0.246-0.474,0.196-0.885c0.163-0.428,0.163-1.538,0-1.967
			c0-7.703,0-15.405,0-23.108c0-10.653,0-21.306,0-31.958c0-6.654,0-13.308,0-19.961c-0.065-4.884,0.131-10.03-0.099-14.75
			c0-4.982,0-9.964,0-14.947c0.228-0.395,0.034-1.211,0.099-1.77c-0.295-6.261,0.098-13.209-0.196-19.47
			c-0.004-0.718-0.009-1.434-0.689-1.475C400.599,91.008,399.323,91.008,398.731,91.172z M395.191,91.369
			c-0.195,1.21-0.053,3.436,0.59,4.622C395.871,94.552,395.943,92.292,395.191,91.369z M416.629,102.48
			c0.443-3.552,1.08-7.11,1.376-10.816c0-0.065,0-0.131,0-0.197c-0.14-0.038-0.166-0.118-0.295,0
			c-0.765,3.179-1.007,7.063-1.476,10.817c-0.35,2.804-0.763,5.648-1.081,8.26c-0.102,0.835-0.462,1.8,0,2.557
			C416.041,109.647,416.19,105.988,416.629,102.48z M395.88,96.777c-0.169,0.421-0.334,1.138,0.196,1.278
			C396.064,97.576,396.148,97,395.88,96.777z M396.273,98.842c-0.543,0.007-0.286,1.097,0,1.18
			C396.351,99.651,396.445,99.189,396.273,98.842z M410.335,184.588c-0.011-0.12-0.029-0.233-0.196-0.197
			c-0.031,0.133-0.141,0.188-0.099,0.394c0,1.671,0,3.343,0,5.015c-0.042,0.371,0.208,0.448,0.394,0.59
			c-0.017-0.223,0.473-0.433,0.196-0.59c0-0.393,0-0.787,0-1.18c0-0.066,0-0.131,0-0.197c-0.062-0.331,0.127-0.914-0.099-1.082
			c0-0.033,0-0.066,0-0.099c-0.063-0.331,0.127-0.913-0.098-1.082C410.369,185.668,410.563,184.918,410.335,184.588z
			 M411.023,194.618c0.078-0.734-0.222-1.089-0.59-1.376c-0.121,0.306-0.457,0.395-0.394,0.885c0,3.868,0,7.736,0,11.604
			c-0.031,0.228,0.016,0.377,0.099,0.492c0.51,0.406,1.504,0.136,1.475-0.59c0-0.426,0-0.853,0-1.278c0-0.066,0-0.131,0-0.197
			c-0.063-0.331,0.127-0.914-0.098-1.082c-0.063-0.364,0.127-0.98-0.1-1.18c0-0.361,0-0.721,0-1.082
			c-0.062-0.331,0.127-0.914-0.098-1.082c0-0.36,0-0.721,0-1.082c-0.062-0.299,0.126-0.847-0.099-0.983c0-0.033,0-0.065,0-0.098
			c-0.062-0.299,0.126-0.847-0.099-0.983c0-0.328,0-0.656,0-0.983C411.061,195.303,411.248,194.755,411.023,194.618z
			 M411.908,210.155c-0.029-0.789-0.57-1.068-1.18-1.278c-0.238,0.155-0.436,0.352-0.59,0.59c-0.23,3.54-0.033,7.506-0.099,11.21
			c-0.031,0.228,0.016,0.377,0.099,0.492c0.367,0.447,1.782,0.4,2.163,0c-0.021-0.29,0.389-0.652,0.099-0.885
			c-0.063-0.299,0.125-0.847-0.099-0.983c0-0.328,0-0.655,0-0.983c0-0.065,0-0.131,0-0.196c-0.063-0.364,0.127-0.98-0.099-1.18
			c-0.063-0.363,0.127-0.979-0.098-1.18c0-0.033,0-0.065,0-0.098c0.162-0.138,0.162-0.944,0-1.082c0-0.033,0-0.066,0-0.099
			c-0.063-0.363,0.127-0.979-0.099-1.18c-0.063-0.331,0.126-0.914-0.099-1.082c0-0.164,0-0.328,0-0.492
			C412.072,211.43,412.072,210.454,411.908,210.155z M415.939,257.65c-0.007,0.171,0.022,0.306,0.099,0.393
			c0.581,0.227,1.623,0.135,1.868-0.295c-0.819-11.942-1.666-25.11-2.654-37.76c-0.129-1.645,0.026-3.645-1.082-4.818
			c-0.014,0.448-0.596,0.842-0.394,1.18c0.033,0,0.065,0,0.099,0c0.023,0.533,0.158,0.957,0.098,1.573
			c0.063,0.331-0.126,0.913,0.1,1.082c0.062,0.331-0.127,0.914,0.098,1.082c0,0.361,0,0.721,0,1.082
			c0.063,0.331-0.127,0.913,0.098,1.082c0.063,0.331-0.126,0.913,0.1,1.082c0,0.328,0,0.656,0,0.983c0,0.065,0,0.131,0,0.197
			c0.062,0.331-0.127,0.913,0.098,1.082c0.063,0.363-0.127,0.979,0.099,1.18c0,0.033,0,0.065,0,0.098
			c-0.163,0.106-0.163,0.877,0,0.983c0,0.033,0,0.065,0,0.098c0.063,0.363-0.128,0.979,0.099,1.18c0,0.426,0,0.852,0,1.278
			c0.063,0.396-0.129,1.045,0.098,1.278c0,0.033,0,0.065,0,0.098c0.063,0.428-0.128,1.112,0.099,1.377c0,0.426,0,0.852,0,1.278
			c0.063,0.46-0.129,1.177,0.099,1.475c0.063,0.461-0.129,1.178,0.098,1.475c0,0.394,0,0.787,0,1.18c0,0.065,0,0.131,0,0.197
			c0.064,0.46-0.129,1.177,0.099,1.475c0.063,0.461-0.129,1.178,0.099,1.475c0,0.492,0,0.983,0,1.475
			c0.063,0.428-0.129,1.112,0.098,1.376c0,0.033,0,0.066,0,0.099c0,0.426,0,0.852,0,1.278c0,0.033,0,0.065,0,0.098
			c0.064,0.461-0.129,1.178,0.099,1.475c0.063,0.493-0.129,1.243,0.099,1.573c0,0.459,0,0.918,0,1.377
			c0.063,0.46-0.129,1.177,0.098,1.475c0.064,0.461-0.129,1.178,0.099,1.475c0,0.492,0,0.983,0,1.475
			c0.063,0.461-0.128,1.178,0.099,1.475C415.904,256.767,415.714,257.417,415.939,257.65z M395.88,224.02
			c-0.228-0.031-0.378,0.016-0.491,0.098c-0.691,2.781-0.869,5.734-1.18,8.653c-0.952,8.932-2.289,17.788-2.853,26.157
			c1.44-0.1,2.323-0.758,3.835-0.787c0.363-0.063,0.98,0.127,1.18-0.099c0.033,0,0.066,0,0.099,0c1.114,0,2.229,0,3.344,0
			c0.032,0,0.065,0,0.099,0c0.266,0.164,1.209,0.164,1.475,0c0.519-0.038,0.77-0.345,0.787-0.885c0.163-5.179,0.163-11.046,0-16.225
			c-0.066-5.375,0.131-11.013-0.099-16.225c0.058-0.516-0.259-0.66-0.688-0.688C399.78,223.856,397.486,223.856,395.88,224.02z
			 M410.925,224.02c-0.151-0.146-0.806,0.042-0.786,0.393c-0.23,3.737-0.033,7.899-0.099,11.8c-0.056,0.731,0.554,1.255,1.081,1.082
			c0.332-0.063,0.914,0.126,1.082-0.099c0.502,0.043,0.879-0.039,0.885-0.491c0.164-0.202,0.164-1.077,0-1.278
			c-0.063-0.461,0.129-1.178-0.098-1.475c0-0.492,0-0.983,0-1.475c-0.064-0.428,0.128-1.112-0.099-1.376c0-0.459,0-0.918,0-1.377
			c-0.063-0.428,0.128-1.111-0.099-1.376c0-0.033,0-0.065,0-0.099c-0.063-0.46,0.129-1.177-0.098-1.475
			c-0.064-0.657,0.129-1.572-0.099-2.065c-0.073-0.354-0.195-0.657-0.688-0.59C411.771,223.894,411.224,224.082,410.925,224.02z
			 M411.023,239.852c-0.606,0.016-0.898,0.347-0.983,0.885c0,3.54,0,7.08,0,10.62c0.062,0.299-0.126,0.847,0.099,0.983
			c0.021,0.076,0.002,0.194,0.098,0.197c-0.014,0.407,0.685,0.102,0.983,0.197c0.364,0.163,1.407,0.163,1.771,0
			c0.196,0,0.393,0,0.59,0c0.001-0.483,0.607-1.326,0.196-1.574c-0.062-0.331,0.127-0.913-0.099-1.082c0-0.492,0-0.983,0-1.475
			c-0.063-0.46,0.129-1.177-0.098-1.475c0-0.492,0-0.983,0-1.475c-0.064-0.559,0.129-1.375-0.099-1.77
			c-0.064-0.722,0.13-1.704-0.099-2.262c0.08-0.833-0.068-1.439-0.491-1.77c-0.099,0-0.196,0-0.295,0
			C412.298,239.688,411.322,239.688,411.023,239.852z M411.318,255.388c-0.602-0.076-0.859,0.189-1.18,0.393
			c-0.346,1.188,0.092,2.293,1.277,2.262c0.461,0.164,1.604,0.164,2.065,0c0.294,0,0.413-0.177,0.491-0.393
			c0.164-0.298,0.164-1.275,0-1.573c-0.059-0.563-0.52-0.726-1.18-0.688C412.527,255.225,411.584,255.225,411.318,255.388z"/>
		<path fill-rule="evenodd" clip-rule="evenodd" fill="#FFFFFF" d="M406.795,43.087c0.225,0.136,0.037,0.685,0.098,0.983
			C406.669,43.934,406.856,43.386,406.795,43.087z"/>
		<path fill-rule="evenodd" clip-rule="evenodd" fill="#FFFFFF" d="M406.893,44.07c0.225,0.136,0.037,0.685,0.1,0.983
			c-0.033,0-0.066,0-0.1,0C406.893,44.726,406.893,44.398,406.893,44.07z"/>
		<path fill-rule="evenodd" clip-rule="evenodd" fill="#FFFFFF" d="M406.893,45.054c0.033,0,0.066,0,0.1,0c0,0.328,0,0.655,0,0.983
			C406.768,45.9,406.955,45.353,406.893,45.054z"/>
		<path fill-rule="evenodd" clip-rule="evenodd" fill="#FFFFFF" d="M406.205,46.824c0.063-0.363-0.127-0.979,0.098-1.18
			C406.24,46.007,406.431,46.623,406.205,46.824z"/>
		<path fill-rule="evenodd" clip-rule="evenodd" fill="#FFFFFF" d="M406.992,46.037c0.225,0.168,0.035,0.75,0.098,1.082
			C406.865,46.95,407.054,46.368,406.992,46.037z"/>
		<path fill-rule="evenodd" clip-rule="evenodd" fill="#FFFFFF" d="M406.106,48.003c0.063-0.363-0.127-0.979,0.099-1.18
			C406.143,47.187,406.332,47.803,406.106,48.003z"/>
		<path fill-rule="evenodd" clip-rule="evenodd" fill="#FFFFFF" d="M407.09,47.119c0.225,0.168,0.036,0.75,0.099,1.082
			c-0.033,0-0.065,0-0.099,0C407.09,47.84,407.09,47.479,407.09,47.119z"/>
		<path fill-rule="evenodd" clip-rule="evenodd" fill="#FFFFFF" d="M406.106,48.003c0,0.394,0,0.787,0,1.18
			c-0.032,0-0.065,0-0.099,0C406.07,48.82,405.881,48.204,406.106,48.003z"/>
		<path fill-rule="evenodd" clip-rule="evenodd" fill="#FFFFFF" d="M401.977,128.833c-0.164-4.753-0.164-10.194,0-14.947
			C401.977,118.869,401.977,123.851,401.977,128.833z"/>
		<path fill-rule="evenodd" clip-rule="evenodd" fill="#FFFFFF" d="M413.187,138.175c0,0.426,0,0.852,0,1.278
			C413.023,139.252,413.023,138.377,413.187,138.175z"/>
		<path fill-rule="evenodd" clip-rule="evenodd" fill="#FFFFFF" d="M401.584,140.24c0.163,1.606,0.163,3.9,0,5.506
			C401.584,143.911,401.584,142.076,401.584,140.24z"/>
		<path fill-rule="evenodd" clip-rule="evenodd" fill="#FFFFFF" d="M399.026,140.338c0.163,0.106,0.163,0.877,0,0.983
			C399.026,140.994,399.026,140.666,399.026,140.338z"/>
		<path fill-rule="evenodd" clip-rule="evenodd" fill="#FFFFFF" d="M413.088,142.207c0,4.95,0,9.899,0,14.849
			C412.924,152.335,412.924,146.927,413.088,142.207z"/>
		<path fill-rule="evenodd" clip-rule="evenodd" fill="#FFFFFF" d="M398.928,145.157c0.033,0,0.066,0,0.099,0
			c-0.065,0.918,0.131,2.097-0.099,2.852C398.928,147.058,398.928,146.107,398.928,145.157z"/>
		<path fill-rule="evenodd" clip-rule="evenodd" fill="#FFFFFF" d="M398.83,150.467c0.064-0.755-0.131-1.769,0.098-2.36
			C398.863,148.861,399.059,149.875,398.83,150.467z"/>
		<path fill-rule="evenodd" clip-rule="evenodd" fill="#FFFFFF" d="M398.731,152.63c0.033,0,0.065,0,0.099,0
			c-0.064,0.624,0.129,1.506-0.099,1.967c0-0.033,0-0.065,0-0.098C398.731,153.875,398.731,153.253,398.731,152.63z"/>
		<path fill-rule="evenodd" clip-rule="evenodd" fill="#FFFFFF" d="M401.484,153.417c-0.064,0.788,0.131,1.835-0.098,2.458
			C401.451,155.088,401.256,154.041,401.484,153.417z"/>
		<path fill-rule="evenodd" clip-rule="evenodd" fill="#FFFFFF" d="M401.387,155.973c0.164,0.429,0.164,1.539,0,1.967
			C401.387,157.285,401.387,156.629,401.387,155.973z"/>
		<path fill-rule="evenodd" clip-rule="evenodd" fill="#FFFFFF" d="M398.633,156.367c0,0.557,0,1.114,0,1.672
			c-0.032,0-0.064,0-0.098,0C398.6,157.512,398.406,156.729,398.633,156.367z"/>
		<path fill-rule="evenodd" clip-rule="evenodd" fill="#FFFFFF" d="M413.088,157.055c0.229,1.508,0.033,3.441,0.099,5.113
			c-0.032,0-0.065,0-0.099,0C413.088,160.464,413.088,158.759,413.088,157.055z"/>
		<path fill-rule="evenodd" clip-rule="evenodd" fill="#FFFFFF" d="M398.535,158.039c0.033,0,0.065,0,0.098,0
			c-0.063,0.493,0.129,1.243-0.098,1.573C398.535,159.087,398.535,158.563,398.535,158.039z"/>
		<path fill-rule="evenodd" clip-rule="evenodd" fill="#FFFFFF" d="M401.288,159.809c0,0.033,0,0.065,0,0.098
			c0,0.557,0,1.114,0,1.671c-0.032,0-0.065,0-0.099,0C401.254,161.02,401.061,160.204,401.288,159.809z"/>
		<path fill-rule="evenodd" clip-rule="evenodd" fill="#FFFFFF" d="M398.437,161.283c0.163,0.17,0.163,1.011,0,1.18
			C398.437,162.07,398.437,161.677,398.437,161.283z"/>
		<path fill-rule="evenodd" clip-rule="evenodd" fill="#FFFFFF" d="M413.088,162.168c0.033,0,0.066,0,0.099,0
			c0,0.951,0,1.901,0,2.852C412.958,164.266,413.153,163.087,413.088,162.168z"/>
		<path fill-rule="evenodd" clip-rule="evenodd" fill="#FFFFFF" d="M398.437,162.562c-0.063,0.428,0.128,1.112-0.099,1.377
			C398.402,163.51,398.21,162.827,398.437,162.562z"/>
		<path fill-rule="evenodd" clip-rule="evenodd" fill="#FFFFFF" d="M401.189,163.152c-0.063,0.46,0.129,1.177-0.098,1.475
			C401.155,164.166,400.963,163.449,401.189,163.152z"/>
		<path fill-rule="evenodd" clip-rule="evenodd" fill="#FFFFFF" d="M402.075,163.545c0,10.653,0,21.306,0,31.958
			C401.911,185.08,401.911,173.968,402.075,163.545z"/>
		<path fill-rule="evenodd" clip-rule="evenodd" fill="#FFFFFF" d="M398.338,163.938c0,0.426,0,0.852,0,1.278
			c-0.032,0-0.064,0-0.098,0C398.303,164.821,398.112,164.171,398.338,163.938z"/>
		<path fill-rule="evenodd" clip-rule="evenodd" fill="#FFFFFF" d="M413.187,165.118c0.228,0.46,0.034,1.343,0.099,1.967
			C413.057,166.625,413.251,165.742,413.187,165.118z"/>
		<path fill-rule="evenodd" clip-rule="evenodd" fill="#FFFFFF" d="M400.993,166.102c0.032,0,0.065,0,0.099,0
			c-0.063,0.428,0.128,1.112-0.099,1.377c0-0.033,0-0.066,0-0.099C400.993,166.954,400.993,166.528,400.993,166.102z"/>
		<path fill-rule="evenodd" clip-rule="evenodd" fill="#FFFFFF" d="M413.285,167.085c0.227,0.33,0.034,1.08,0.098,1.573
			c-0.032,0-0.064,0-0.098,0C413.285,168.134,413.285,167.609,413.285,167.085z"/>
		<path fill-rule="evenodd" clip-rule="evenodd" fill="#FFFFFF" d="M398.142,167.675c0,0.033,0,0.066,0,0.099
			c0,0.328,0,0.655,0,0.983c-0.032,0-0.065,0-0.099,0C398.105,168.426,397.916,167.843,398.142,167.675z"/>
		<path fill-rule="evenodd" clip-rule="evenodd" fill="#FFFFFF" d="M400.895,168.757c0,0.36,0,0.721,0,1.082
			C400.732,169.701,400.732,168.895,400.895,168.757z"/>
		<path fill-rule="evenodd" clip-rule="evenodd" fill="#FFFFFF" d="M400.895,169.937c-0.063,0.331,0.127,0.914-0.098,1.082
			C400.859,170.688,400.67,170.105,400.895,169.937z"/>
		<path fill-rule="evenodd" clip-rule="evenodd" fill="#FFFFFF" d="M413.383,170.133c0.163,0.106,0.163,0.877,0,0.983
			C413.383,170.789,413.383,170.461,413.383,170.133z"/>
		<path fill-rule="evenodd" clip-rule="evenodd" fill="#FFFFFF" d="M400.797,171.117c-0.063,0.331,0.127,0.914-0.099,1.082
			C400.761,171.867,400.572,171.285,400.797,171.117z"/>
		<path fill-rule="evenodd" clip-rule="evenodd" fill="#FFFFFF" d="M400.698,173.28c-0.062,0.299,0.126,0.847-0.099,0.983
			c0-0.033,0-0.065,0-0.098C400.66,173.898,400.475,173.385,400.698,173.28z"/>
		<path fill-rule="evenodd" clip-rule="evenodd" fill="#FFFFFF" d="M400.6,174.165c0,0.033,0,0.065,0,0.098
			c-0.061,0.267,0.125,0.781-0.098,0.885C400.563,174.85,400.376,174.301,400.6,174.165z"/>
		<path fill-rule="evenodd" clip-rule="evenodd" fill="#FFFFFF" d="M410.04,184.785c0.163,1.442,0.163,3.572,0,5.015
			C410.04,188.128,410.04,186.457,410.04,184.785z"/>
		<path fill-rule="evenodd" clip-rule="evenodd" fill="#FFFFFF" d="M410.531,187.342c0.226,0.168,0.037,0.75,0.099,1.082
			C410.404,188.255,410.594,187.673,410.531,187.342z"/>
		<path fill-rule="evenodd" clip-rule="evenodd" fill="#FFFFFF" d="M410.63,189.8c-0.163-0.169-0.163-1.01,0-1.18
			C410.63,189.013,410.63,189.407,410.63,189.8z"/>
		<path fill-rule="evenodd" clip-rule="evenodd" fill="#FFFFFF" d="M410.04,194.126c0.163,3.639,0.163,7.965,0,11.604
			C410.04,201.862,410.04,197.995,410.04,194.126z"/>
		<path fill-rule="evenodd" clip-rule="evenodd" fill="#FFFFFF" d="M411.023,195.602c0-0.328,0-0.655,0-0.983
			c0.225,0.137,0.037,0.685,0.098,0.983C411.089,195.602,411.057,195.602,411.023,195.602z"/>
		<path fill-rule="evenodd" clip-rule="evenodd" fill="#FFFFFF" d="M411.023,195.602c0.033,0,0.065,0,0.098,0
			c0,0.328,0,0.656,0,0.983C410.897,196.449,411.085,195.9,411.023,195.602z"/>
		<path fill-rule="evenodd" clip-rule="evenodd" fill="#FFFFFF" d="M411.121,196.585c0.225,0.136,0.037,0.685,0.099,0.983
			C410.996,197.432,411.184,196.884,411.121,196.585z"/>
		<path fill-rule="evenodd" clip-rule="evenodd" fill="#FFFFFF" d="M411.22,197.667c0.225,0.136,0.037,0.685,0.099,0.983
			C411.094,198.514,411.281,197.965,411.22,197.667z"/>
		<path fill-rule="evenodd" clip-rule="evenodd" fill="#FFFFFF" d="M411.318,199.731c0.225,0.168,0.036,0.751,0.098,1.082
			C411.191,200.645,411.381,200.063,411.318,199.731z"/>
		<path fill-rule="evenodd" clip-rule="evenodd" fill="#FFFFFF" d="M411.613,204.354c0,0.426,0,0.852,0,1.278
			C411.45,205.43,411.45,204.555,411.613,204.354z"/>
		<path fill-rule="evenodd" clip-rule="evenodd" fill="#FFFFFF" d="M411.908,210.155c0.164,0.299,0.164,1.275,0,1.573
			C411.908,211.204,411.908,210.679,411.908,210.155z"/>
		<path fill-rule="evenodd" clip-rule="evenodd" fill="#FFFFFF" d="M412.007,213.302c0.226,0.2,0.035,0.816,0.099,1.18
			C411.879,214.281,412.069,213.665,412.007,213.302z"/>
		<path fill-rule="evenodd" clip-rule="evenodd" fill="#FFFFFF" d="M412.105,214.58c0.162,0.138,0.162,0.944,0,1.082
			C412.105,215.301,412.105,214.94,412.105,214.58z"/>
		<path fill-rule="evenodd" clip-rule="evenodd" fill="#FFFFFF" d="M413.973,217.923c0.033,0,0.066,0,0.1,0c0,0.36,0,0.721,0,1.082
			C413.847,218.836,414.035,218.254,413.973,217.923z"/>
		<path fill-rule="evenodd" clip-rule="evenodd" fill="#FFFFFF" d="M412.302,218.316c0,0.328,0,0.656,0,0.983
			C412.139,219.194,412.139,218.423,412.302,218.316z"/>
		<path fill-rule="evenodd" clip-rule="evenodd" fill="#FFFFFF" d="M412.302,219.3c0.224,0.136,0.036,0.685,0.099,0.983
			C412.176,220.147,412.363,219.599,412.302,219.3z"/>
		<path fill-rule="evenodd" clip-rule="evenodd" fill="#FFFFFF" d="M414.17,220.086c0.225,0.168,0.036,0.751,0.098,1.082
			c-0.032,0-0.064,0-0.098,0C414.17,220.808,414.17,220.447,414.17,220.086z"/>
		<path fill-rule="evenodd" clip-rule="evenodd" fill="#FFFFFF" d="M414.367,223.332c0.162,0.106,0.162,0.877,0,0.983
			C414.367,223.987,414.367,223.659,414.367,223.332z"/>
		<path fill-rule="evenodd" clip-rule="evenodd" fill="#FFFFFF" d="M395.88,224.02c1.606-0.164,3.9-0.164,5.507,0
			C399.551,224.02,397.715,224.02,395.88,224.02z"/>
		<path fill-rule="evenodd" clip-rule="evenodd" fill="#FFFFFF" d="M410.925,224.02c0.299,0.062,0.847-0.126,0.983,0.098
			C411.609,224.057,411.061,224.244,410.925,224.02z"/>
		<path fill-rule="evenodd" clip-rule="evenodd" fill="#FFFFFF" d="M412.695,226.773c0.227,0.297,0.034,1.014,0.098,1.475
			C412.566,227.951,412.759,227.234,412.695,226.773z"/>
		<path fill-rule="evenodd" clip-rule="evenodd" fill="#FFFFFF" d="M414.563,226.872c0,0.328,0,0.656,0,0.983
			C414.4,227.749,414.4,226.978,414.563,226.872z"/>
		<path fill-rule="evenodd" clip-rule="evenodd" fill="#FFFFFF" d="M412.793,228.347c0.227,0.265,0.035,0.948,0.099,1.376
			c-0.032,0-0.065,0-0.099,0C412.793,229.264,412.793,228.806,412.793,228.347z"/>
		<path fill-rule="evenodd" clip-rule="evenodd" fill="#FFFFFF" d="M412.793,229.723c0.033,0,0.066,0,0.099,0
			c0,0.459,0,0.918,0,1.377C412.665,230.835,412.856,230.151,412.793,229.723z"/>
		<path fill-rule="evenodd" clip-rule="evenodd" fill="#FFFFFF" d="M414.662,230.412c0.032,0,0.064,0,0.098,0
			c0,0.426,0,0.852,0,1.278C414.533,231.457,414.725,230.807,414.662,230.412z"/>
		<path fill-rule="evenodd" clip-rule="evenodd" fill="#FFFFFF" d="M414.858,233.165c0-0.033,0-0.066,0-0.099
			c0.227,0.265,0.034,0.949,0.099,1.377c-0.033,0-0.066,0-0.099,0C414.858,234.017,414.858,233.591,414.858,233.165z"/>
		<path fill-rule="evenodd" clip-rule="evenodd" fill="#FFFFFF" d="M413.088,235.427c0.164,0.202,0.164,1.077,0,1.278
			C413.088,236.279,413.088,235.853,413.088,235.427z"/>
		<path fill-rule="evenodd" clip-rule="evenodd" fill="#FFFFFF" d="M411.121,237.295c0.169-0.225,0.751-0.036,1.082-0.099
			C412.035,237.421,411.453,237.232,411.121,237.295z"/>
		<path fill-rule="evenodd" clip-rule="evenodd" fill="#FFFFFF" d="M415.055,237.393c0-0.033,0-0.065,0-0.098
			c0.164,0.202,0.164,1.077,0,1.278C415.055,238.18,415.055,237.787,415.055,237.393z"/>
		<path fill-rule="evenodd" clip-rule="evenodd" fill="#FFFFFF" d="M411.023,239.852c0.299-0.164,1.274-0.164,1.573,0
			C412.072,239.852,411.548,239.852,411.023,239.852z"/>
		<path fill-rule="evenodd" clip-rule="evenodd" fill="#FFFFFF" d="M410.04,240.736c0.229,3.344,0.032,7.113,0.099,10.62
			c-0.033,0-0.066,0-0.099,0C410.04,247.816,410.04,244.276,410.04,240.736z"/>
		<path fill-rule="evenodd" clip-rule="evenodd" fill="#FFFFFF" d="M415.252,243.195c0.227,0.265,0.035,0.948,0.098,1.376
			C415.123,244.307,415.314,243.623,415.252,243.195z"/>
		<path fill-rule="evenodd" clip-rule="evenodd" fill="#FFFFFF" d="M413.481,243.883c0.228,0.395,0.034,1.211,0.099,1.77
			c-0.033,0-0.066,0-0.099,0C413.481,245.063,413.481,244.473,413.481,243.883z"/>
		<path fill-rule="evenodd" clip-rule="evenodd" fill="#FFFFFF" d="M415.35,244.67c0.164,0.202,0.164,1.077,0,1.278
			C415.35,245.522,415.35,245.096,415.35,244.67z"/>
		<path fill-rule="evenodd" clip-rule="evenodd" fill="#FFFFFF" d="M413.481,245.653c0.032,0,0.065,0,0.099,0
			c0,0.492,0,0.983,0,1.475C413.354,246.831,413.545,246.114,413.481,245.653z"/>
		<path fill-rule="evenodd" clip-rule="evenodd" fill="#FFFFFF" d="M415.547,249.095c0-0.033,0-0.065,0-0.098
			c0.227,0.297,0.034,1.014,0.098,1.475c-0.032,0-0.064,0-0.098,0C415.547,250.013,415.547,249.554,415.547,249.095z"/>
		<path fill-rule="evenodd" clip-rule="evenodd" fill="#FFFFFF" d="M415.547,250.472c0.033,0,0.065,0,0.098,0
			c0,0.492,0,0.983,0,1.475C415.418,251.649,415.61,250.932,415.547,250.472z"/>
		<path fill-rule="evenodd" clip-rule="evenodd" fill="#FFFFFF" d="M410.04,251.356c0.032,0,0.065,0,0.099,0
			c0,0.328,0,0.656,0,0.983C409.914,252.204,410.102,251.655,410.04,251.356z"/>
		<path fill-rule="evenodd" clip-rule="evenodd" fill="#FFFFFF" d="M415.645,251.946c0.228,0.298,0.035,1.015,0.099,1.475
			C415.516,253.124,415.709,252.407,415.645,251.946z"/>
		<path fill-rule="evenodd" clip-rule="evenodd" fill="#FFFFFF" d="M415.743,253.421c0.228,0.298,0.034,1.014,0.099,1.475
			c-0.033,0-0.066,0-0.099,0C415.743,254.405,415.743,253.913,415.743,253.421z"/>
		<path fill-rule="evenodd" clip-rule="evenodd" fill="#FFFFFF" d="M411.318,255.388c0.266-0.164,1.209-0.164,1.475,0
			C412.302,255.388,411.811,255.388,411.318,255.388z"/>
		<path fill-rule="evenodd" clip-rule="evenodd" fill="#FFFFFF" d="M413.973,257.65c0-0.524,0-1.049,0-1.573
			C414.137,256.375,414.137,257.352,413.973,257.65z"/>
		<path fill-rule="evenodd" clip-rule="evenodd" fill="#FFFFFF" d="M396.47,258.043c0.886-0.164,2.458-0.164,3.344,0
			C398.699,258.043,397.584,258.043,396.47,258.043z"/>
		<path fill-rule="evenodd" clip-rule="evenodd" fill="#FFFFFF" d="M395.191,258.142c0.201-0.226,0.816-0.036,1.18-0.099
			C396.172,258.269,395.555,258.079,395.191,258.142z"/>
		<path fill-rule="evenodd" clip-rule="evenodd" fill="#FFFFFF" d="M399.912,258.043c0.491,0,0.982,0,1.475,0
			C401.121,258.207,400.178,258.207,399.912,258.043z"/>
		<path fill-rule="evenodd" clip-rule="evenodd" fill="#FFFFFF" d="M411.416,258.043c0.689,0,1.377,0,2.065,0
			C413.021,258.207,411.877,258.207,411.416,258.043z"/>
		<path fill-rule="evenodd" clip-rule="evenodd" fill="#FFFFFF" d="M421.84,262.468c0.656-0.229,1.736-0.034,2.557-0.099
			C423.74,262.598,422.66,262.403,421.84,262.468z"/>
		<path fill-rule="evenodd" clip-rule="evenodd" fill="#FFFFFF" d="M396.175,270.236c1.541-0.164,3.769-0.164,5.31,0
			C399.715,270.236,397.945,270.236,396.175,270.236z"/>
		<path fill-rule="evenodd" clip-rule="evenodd" fill="#FFFFFF" d="M416.924,271.023c0.032,0,0.064,0,0.098,0
			c0,0.524,0,1.049,0,1.574C416.795,272.267,416.987,271.517,416.924,271.023z"/>
		<path fill-rule="evenodd" clip-rule="evenodd" fill="#FFFFFF" d="M414.662,272.105c0.227,0.265,0.034,0.948,0.098,1.376
			c-0.033,0-0.065,0-0.098,0C414.662,273.022,414.662,272.563,414.662,272.105z"/>
		<path fill-rule="evenodd" clip-rule="evenodd" fill="#FFFFFF" d="M414.662,273.481c0.032,0,0.064,0,0.098,0c0,0.59,0,1.18,0,1.77
			c0,0.033,0,0.065,0,0.098C414.532,274.922,414.727,274.073,414.662,273.481z"/>
		<path fill-rule="evenodd" clip-rule="evenodd" fill="#FFFFFF" d="M402.271,273.58c0,3.54,0,7.08,0,10.62
			C402.107,280.889,402.107,276.891,402.271,273.58z"/>
		<path fill-rule="evenodd" clip-rule="evenodd" fill="#FFFFFF" d="M417.12,274.17c0-0.033,0-0.066,0-0.099
			c0.227,0.298,0.034,1.015,0.099,1.475c-0.033,0-0.066,0-0.099,0C417.12,275.087,417.12,274.629,417.12,274.17z"/>
		<path fill-rule="evenodd" clip-rule="evenodd" fill="#FFFFFF" d="M410.531,274.76c0.033,0,0.066,0,0.099,0
			c0,0.754,0,1.508,0,2.262C410.401,276.463,410.596,275.482,410.531,274.76z"/>
		<path fill-rule="evenodd" clip-rule="evenodd" fill="#FFFFFF" d="M414.858,277.021c0.228,0.33,0.034,1.08,0.099,1.573
			C414.729,278.265,414.922,277.515,414.858,277.021z"/>
		<path fill-rule="evenodd" clip-rule="evenodd" fill="#FFFFFF" d="M414.957,280.07c-0.164-0.202-0.164-1.077,0-1.278
			C414.957,279.218,414.957,279.644,414.957,280.07z"/>
		<path fill-rule="evenodd" clip-rule="evenodd" fill="#FFFFFF" d="M410.729,279.48c0.163,0.461,0.163,1.604,0,2.065
			C410.729,280.856,410.729,280.168,410.729,279.48z"/>
		<path fill-rule="evenodd" clip-rule="evenodd" fill="#FFFFFF" d="M417.514,282.528c0,0.426,0,0.852,0,1.278
			C417.35,283.605,417.35,282.73,417.514,282.528z"/>
		<path fill-rule="evenodd" clip-rule="evenodd" fill="#FFFFFF" d="M410.826,283.708c0.164,0.461,0.164,1.604,0,2.065
			C410.826,285.085,410.826,284.396,410.826,283.708z"/>
		<path fill-rule="evenodd" clip-rule="evenodd" fill="#FFFFFF" d="M417.514,283.905c0.163,0.494,0.163,1.669,0,2.163
			C417.514,285.347,417.514,284.626,417.514,283.905z"/>
		<path fill-rule="evenodd" clip-rule="evenodd" fill="#FFFFFF" d="M402.764,286.461c0-0.033,0-0.065,0-0.098
			c1.704,0.065,3.67-0.131,5.211,0.098C406.238,286.461,404.5,286.461,402.764,286.461z"/>
		<path fill-rule="evenodd" clip-rule="evenodd" fill="#FFFFFF" d="M415.35,91.172c-0.377-0.377-1.385-0.123-2.064-0.197
			c0-0.033,0-0.065,0-0.098C413.965,90.983,415.121,90.614,415.35,91.172z"/>
		<path fill-rule="evenodd" clip-rule="evenodd" fill="#FFFFFF" d="M401.879,92.647c0.294,6.261-0.099,13.209,0.196,19.47
			c-0.08-0.019-0.099-0.099-0.196-0.098C401.879,105.561,401.879,99.104,401.879,92.647z"/>
		<path fill-rule="evenodd" clip-rule="evenodd" fill="#FFFFFF" d="M401.879,112.019c0.098,0,0.116,0.08,0.196,0.098
			c-0.064,0.559,0.129,1.375-0.099,1.77C401.925,113.283,402.089,112.463,401.879,112.019z"/>
		<path fill-rule="evenodd" clip-rule="evenodd" fill="#FFFFFF" d="M411.22,252.733c-0.299-0.095-0.997,0.21-0.983-0.197
			c0.176,0.251,0.918-0.065,1.082,0.197C411.285,252.733,411.253,252.733,411.22,252.733z"/>
		<path fill-rule="evenodd" clip-rule="evenodd" fill="#FFFFFF" d="M406.303,44.562c0.063-0.363-0.127-0.979,0.099-1.18
			C406.339,43.745,406.529,44.361,406.303,44.562z"/>
		<path fill-rule="evenodd" clip-rule="evenodd" fill="#FFFFFF" d="M407.188,48.2c0,0.328,0,0.656,0,0.983
			c-0.225-0.136-0.037-0.685-0.099-0.983C407.123,48.2,407.155,48.2,407.188,48.2z"/>
		<path fill-rule="evenodd" clip-rule="evenodd" fill="#FFFFFF" d="M407.188,49.184c0.226,0.201,0.035,0.816,0.099,1.18
			C407.061,50.163,407.251,49.547,407.188,49.184z"/>
		<path fill-rule="evenodd" clip-rule="evenodd" fill="#FFFFFF" d="M405.91,51.445c0.063-0.331-0.127-0.914,0.098-1.082
			C405.945,50.695,406.135,51.277,405.91,51.445z"/>
		<path fill-rule="evenodd" clip-rule="evenodd" fill="#FFFFFF" d="M385.26,73.079c-0.215,0.277,0.041,1.024-0.196,1.278
			C385.139,73.94,384.883,73.192,385.26,73.079z"/>
		<path fill-rule="evenodd" clip-rule="evenodd" fill="#FFFFFF" d="M410.826,90.975c0.624-0.229,1.672-0.033,2.459-0.098
			c0,0.033,0,0.065,0,0.098C412.465,90.975,411.646,90.975,410.826,90.975z"/>
		<path fill-rule="evenodd" clip-rule="evenodd" fill="#FFFFFF" d="M398.731,91.172c0.592-0.164,1.867-0.164,2.458,0
			C400.371,91.172,399.551,91.172,398.731,91.172z"/>
		<path fill-rule="evenodd" clip-rule="evenodd" fill="#FFFFFF" d="M400.502,123.72c0.224,0.136,0.036,0.685,0.098,0.983
			C400.376,124.567,400.563,124.019,400.502,123.72z"/>
		<path fill-rule="evenodd" clip-rule="evenodd" fill="#FFFFFF" d="M410.04,94.909c0.229,9.768,0.032,19.961,0.099,29.893
			C409.908,115.034,410.105,104.84,410.04,94.909z"/>
		<path fill-rule="evenodd" clip-rule="evenodd" fill="#FFFFFF" d="M401.484,136.897c0.227,0.265,0.035,0.948,0.1,1.376
			C401.356,138.008,401.549,137.325,401.484,136.897z"/>
		<path fill-rule="evenodd" clip-rule="evenodd" fill="#FFFFFF" d="M398.928,145.157c0.066-1.246-0.131-2.753,0.099-3.835
			c0,1.278,0,2.557,0,3.835C398.994,145.157,398.961,145.157,398.928,145.157z"/>
		<path fill-rule="evenodd" clip-rule="evenodd" fill="#FFFFFF" d="M398.731,152.63c0.065-0.689-0.13-1.638,0.099-2.163
			c0,0.721,0,1.442,0,2.163C398.797,152.63,398.765,152.63,398.731,152.63z"/>
		<path fill-rule="evenodd" clip-rule="evenodd" fill="#FFFFFF" d="M398.633,156.367c0.064-0.591-0.129-1.44,0.099-1.868
			c0,0.033,0,0.065,0,0.098C398.668,155.155,398.861,155.972,398.633,156.367z"/>
		<path fill-rule="evenodd" clip-rule="evenodd" fill="#FFFFFF" d="M398.437,161.185c0.063-0.493-0.129-1.243,0.099-1.573
			C398.471,160.105,398.664,160.855,398.437,161.185z"/>
		<path fill-rule="evenodd" clip-rule="evenodd" fill="#FFFFFF" d="M400.993,166.102c0.063-0.428-0.128-1.111,0.099-1.376
			c0,0.459,0,0.917,0,1.376C401.059,166.102,401.025,166.102,400.993,166.102z"/>
		<path fill-rule="evenodd" clip-rule="evenodd" fill="#FFFFFF" d="M398.142,167.773c0-0.033,0-0.065,0-0.099
			c0.063-0.331-0.126-0.913,0.099-1.082C398.178,166.957,398.367,167.573,398.142,167.773z"/>
		<path fill-rule="evenodd" clip-rule="evenodd" fill="#FFFFFF" d="M397.945,170.92c0.063-0.331-0.127-0.913,0.098-1.082
			C397.98,170.169,398.17,170.752,397.945,170.92z"/>
		<path fill-rule="evenodd" clip-rule="evenodd" fill="#FFFFFF" d="M397.945,171.805c-0.063,0.299,0.125,0.847-0.099,0.983
			C397.908,172.489,397.721,171.941,397.945,171.805z"/>
		<path fill-rule="evenodd" clip-rule="evenodd" fill="#FFFFFF" d="M413.481,171.313c0.228,0.428,0.034,1.277,0.099,1.868
			C413.352,172.754,413.546,171.905,413.481,171.313z"/>
		<path fill-rule="evenodd" clip-rule="evenodd" fill="#FFFFFF" d="M411.613,204.157c-0.225-0.168-0.036-0.75-0.098-1.082
			C411.74,203.243,411.551,203.826,411.613,204.157z"/>
		<path fill-rule="evenodd" clip-rule="evenodd" fill="#FFFFFF" d="M410.04,220.677c0.065-3.704-0.132-7.67,0.099-11.21
			C410.072,213.17,410.27,217.137,410.04,220.677z"/>
		<path fill-rule="evenodd" clip-rule="evenodd" fill="#FFFFFF" d="M413.973,217.923c0.061-0.617-0.074-1.04-0.098-1.573
			c0.266,0.325,0.186,0.994,0.197,1.573C414.039,217.923,414.006,217.923,413.973,217.923z"/>
		<path fill-rule="evenodd" clip-rule="evenodd" fill="#FFFFFF" d="M414.268,222.25c0.226,0.168,0.037,0.75,0.1,1.082
			C414.142,223.163,414.33,222.581,414.268,222.25z"/>
		<path fill-rule="evenodd" clip-rule="evenodd" fill="#FFFFFF" d="M414.367,224.512c0.225,0.168,0.035,0.75,0.098,1.082
			C414.24,225.425,414.429,224.843,414.367,224.512z"/>
		<path fill-rule="evenodd" clip-rule="evenodd" fill="#FFFFFF" d="M414.465,225.593c0.226,0.2,0.035,0.816,0.099,1.18
			C414.338,226.573,414.527,225.957,414.465,225.593z"/>
		<path fill-rule="evenodd" clip-rule="evenodd" fill="#FFFFFF" d="M414.662,229.035c0,0.033,0,0.066,0,0.099
			c-0.227-0.201-0.036-0.817-0.099-1.18C414.788,228.122,414.6,228.704,414.662,229.035z"/>
		<path fill-rule="evenodd" clip-rule="evenodd" fill="#FFFFFF" d="M414.662,230.412c0-0.426,0-0.852,0-1.278
			c0-0.033,0-0.065,0-0.099c0.227,0.265,0.034,0.949,0.098,1.377C414.727,230.412,414.694,230.412,414.662,230.412z"/>
		<path fill-rule="evenodd" clip-rule="evenodd" fill="#FFFFFF" d="M414.858,233.066c0,0.033,0,0.065,0,0.099
			c-0.227-0.265-0.035-0.949-0.099-1.377C414.986,232.021,414.795,232.671,414.858,233.066z"/>
		<path fill-rule="evenodd" clip-rule="evenodd" fill="#FFFFFF" d="M415.055,237.295c0,0.033,0,0.065,0,0.098
			c-0.227-0.297-0.034-1.014-0.098-1.475C415.184,236.183,414.992,236.867,415.055,237.295z"/>
		<path fill-rule="evenodd" clip-rule="evenodd" fill="#FFFFFF" d="M415.153,240.245c0.228,0.298,0.034,1.015,0.099,1.475
			C415.024,241.422,415.217,240.706,415.153,240.245z"/>
		<path fill-rule="evenodd" clip-rule="evenodd" fill="#FFFFFF" d="M415.547,248.997c0,0.033,0,0.065,0,0.098
			c-0.228-0.33-0.035-1.08-0.099-1.573C415.676,247.819,415.482,248.536,415.547,248.997z"/>
		<path fill-rule="evenodd" clip-rule="evenodd" fill="#FFFFFF" d="M415.842,256.372c-0.227-0.297-0.035-1.014-0.099-1.475
			c0.032,0,0.065,0,0.099,0C415.842,255.388,415.842,255.88,415.842,256.372z"/>
		<path fill-rule="evenodd" clip-rule="evenodd" fill="#FFFFFF" d="M420.66,258.535c-0.158-0.694-0.138-1.567-0.197-2.36
			C420.687,256.804,420.665,257.677,420.66,258.535z"/>
		<path fill-rule="evenodd" clip-rule="evenodd" fill="#FFFFFF" d="M415.842,256.372c0.227,0.232,0.035,0.882,0.098,1.278
			C415.714,257.417,415.904,256.767,415.842,256.372z"/>
		<path fill-rule="evenodd" clip-rule="evenodd" fill="#FFFFFF" d="M417.12,274.071c0,0.033,0,0.066,0,0.099
			c-0.228-0.33-0.034-1.08-0.099-1.573C417.248,272.894,417.057,273.611,417.12,274.071z"/>
		<path fill-rule="evenodd" clip-rule="evenodd" fill="#FFFFFF" d="M410.531,274.76c0-0.688,0-1.376,0-2.065
			c0.229,0.493,0.034,1.408,0.099,2.065C410.598,274.76,410.564,274.76,410.531,274.76z"/>
		<path fill-rule="evenodd" clip-rule="evenodd" fill="#FFFFFF" d="M417.219,276.923c0.227,0.297,0.034,1.014,0.098,1.475
			C417.09,278.101,417.281,277.384,417.219,276.923z"/>
		<path fill-rule="evenodd" clip-rule="evenodd" fill="#FFFFFF" d="M410.63,277.021c0.229,0.624,0.034,1.671,0.099,2.458
			C410.5,278.856,410.695,277.809,410.63,277.021z"/>
		<path fill-rule="evenodd" clip-rule="evenodd" fill="#FFFFFF" d="M417.316,279.676c0.227,0.265,0.035,0.949,0.099,1.377
			C417.188,280.788,417.38,280.104,417.316,279.676z"/>
		<path fill-rule="evenodd" clip-rule="evenodd" fill="#FFFFFF" d="M417.415,281.053c0.227,0.265,0.034,0.948,0.099,1.376
			C417.287,282.165,417.479,281.481,417.415,281.053z"/>
		<path fill-rule="evenodd" clip-rule="evenodd" fill="#FFFFFF" d="M386.047,285.281c0.525,0.064,1.309-0.129,1.672,0.099
			C387.192,285.316,386.409,285.509,386.047,285.281z"/>
		<path fill-rule="evenodd" clip-rule="evenodd" fill="#FFFFFF" d="M398.928,137.782c0.229,0.656,0.034,1.736,0.099,2.557
			C398.798,139.682,398.993,138.602,398.928,137.782z"/>
		<path fill-rule="evenodd" clip-rule="evenodd" fill="#FFFFFF" d="M401.288,161.578c-0.063,0.494,0.129,1.244-0.099,1.574
			c0-0.524,0-1.049,0-1.574C401.223,161.578,401.256,161.578,401.288,161.578z"/>
		<path fill-rule="evenodd" clip-rule="evenodd" fill="#FFFFFF" d="M410.335,184.588c0.228,0.33,0.034,1.08,0.099,1.573
			c0,0.033,0,0.065,0,0.098C410.206,185.897,410.398,185.114,410.335,184.588z"/>
		<path fill-rule="evenodd" clip-rule="evenodd" fill="#FFFFFF" d="M412.597,224.708c0.228,0.493,0.034,1.409,0.099,2.065
			C412.467,226.28,412.661,225.365,412.597,224.708z"/>
		<path fill-rule="evenodd" clip-rule="evenodd" fill="#FFFFFF" d="M410.04,92.057c0,0.951,0,1.901,0,2.852
			C409.876,94.186,409.876,92.779,410.04,92.057z"/>
		<path fill-rule="evenodd" clip-rule="evenodd" fill="#FFFFFF" d="M413.187,139.552c-0.065,0.82,0.13,1.9-0.099,2.557
			C413.153,141.288,412.958,140.208,413.187,139.552z"/>
		<path fill-rule="evenodd" clip-rule="evenodd" fill="#FFFFFF" d="M401.387,157.94c-0.064,0.624,0.129,1.506-0.099,1.967
			c0-0.033,0-0.065,0-0.098C401.353,159.217,401.158,158.368,401.387,157.94z"/>
		<path fill-rule="evenodd" clip-rule="evenodd" fill="#FFFFFF" d="M411.416,201.895c0.227,0.2,0.036,0.816,0.1,1.18
			C411.289,202.875,411.479,202.258,411.416,201.895z"/>
		<path fill-rule="evenodd" clip-rule="evenodd" fill="#FFFFFF" d="M412.105,215.76c0.225,0.201,0.035,0.817,0.098,1.18
			C411.978,216.739,412.168,216.123,412.105,215.76z"/>
		<path fill-rule="evenodd" clip-rule="evenodd" fill="#FFFFFF" d="M396.666,221.365c0.82,0.065,1.9-0.13,2.557,0.099
			C398.403,221.398,397.323,221.593,396.666,221.365z"/>
		<path fill-rule="evenodd" clip-rule="evenodd" fill="#FFFFFF" d="M402.075,224.708c0.229,5.212,0.032,10.85,0.099,16.225
			C401.943,235.722,402.141,230.084,402.075,224.708z"/>
		<path fill-rule="evenodd" clip-rule="evenodd" fill="#FFFFFF" d="M412.99,233.952c0.227,0.297,0.034,1.014,0.098,1.475
			C412.861,235.129,413.054,234.412,412.99,233.952z"/>
		<path fill-rule="evenodd" clip-rule="evenodd" fill="#FFFFFF" d="M412.892,271.22c0.169-0.163,1.011-0.163,1.181,0
			C413.678,271.22,413.285,271.22,412.892,271.22z"/>
		<path fill-rule="evenodd" clip-rule="evenodd" fill="#FFFFFF" d="M406.106,49.184c-0.063,0.363,0.128,0.979-0.099,1.18
			c0-0.394,0-0.787,0-1.18C406.041,49.184,406.074,49.184,406.106,49.184z"/>
		<path fill-rule="evenodd" clip-rule="evenodd" fill="#FFFFFF" d="M401.977,128.833c0.229,4.72,0.033,9.866,0.099,14.75
			C401.846,138.863,402.042,133.717,401.977,128.833z"/>
		<path fill-rule="evenodd" clip-rule="evenodd" fill="#FFFFFF" d="M401.387,135.815c0.225,0.168,0.036,0.751,0.098,1.082
			C401.26,136.729,401.449,136.146,401.387,135.815z"/>
		<path fill-rule="evenodd" clip-rule="evenodd" fill="#FFFFFF" d="M398.338,165.217c-0.063,0.396,0.129,1.045-0.098,1.278
			c0-0.426,0-0.853,0-1.278C398.273,165.217,398.306,165.217,398.338,165.217z"/>
		<path fill-rule="evenodd" clip-rule="evenodd" fill="#FFFFFF" d="M400.993,167.479c-0.063,0.363,0.128,0.979-0.099,1.18
			c0.063-0.396-0.127-1.045,0.099-1.278C400.993,167.413,400.993,167.445,400.993,167.479z"/>
		<path fill-rule="evenodd" clip-rule="evenodd" fill="#FFFFFF" d="M413.383,168.658c0,0.492,0,0.983,0,1.475
			c-0.227-0.297-0.034-1.014-0.098-1.475C413.318,168.658,413.351,168.658,413.383,168.658z"/>
		<path fill-rule="evenodd" clip-rule="evenodd" fill="#FFFFFF" d="M398.142,168.757c-0.063,0.331,0.127,0.913-0.099,1.082
			c0-0.36,0-0.721,0-1.082C398.076,168.757,398.109,168.757,398.142,168.757z"/>
		<path fill-rule="evenodd" clip-rule="evenodd" fill="#FFFFFF" d="M410.434,186.162c0.225,0.168,0.035,0.75,0.098,1.082
			c-0.224-0.136-0.036-0.684-0.098-0.983C410.434,186.227,410.434,186.194,410.434,186.162z"/>
		<path fill-rule="evenodd" clip-rule="evenodd" fill="#FFFFFF" d="M412.203,216.94c0.226,0.2,0.035,0.816,0.099,1.18
			C412.076,217.919,412.266,217.303,412.203,216.94z"/>
		<path fill-rule="evenodd" clip-rule="evenodd" fill="#FFFFFF" d="M414.268,221.168c0,0.36,0,0.721,0,1.082
			c-0.225-0.168-0.035-0.75-0.098-1.082C414.203,221.168,414.235,221.168,414.268,221.168z"/>
		<path fill-rule="evenodd" clip-rule="evenodd" fill="#FFFFFF" d="M399.223,221.463c0.494,0.064,1.244-0.129,1.574,0.098
			C400.303,221.498,399.553,221.69,399.223,221.463z"/>
		<path fill-rule="evenodd" clip-rule="evenodd" fill="#FFFFFF" d="M412.892,231.1c0.227,0.265,0.034,0.948,0.099,1.376
			C412.764,232.211,412.955,231.528,412.892,231.1z"/>
		<path fill-rule="evenodd" clip-rule="evenodd" fill="#FFFFFF" d="M414.957,234.443c0,0.492,0,0.983,0,1.475
			c-0.228-0.297-0.035-1.014-0.099-1.475C414.891,234.443,414.924,234.443,414.957,234.443z"/>
		<path fill-rule="evenodd" clip-rule="evenodd" fill="#FFFFFF" d="M415.055,238.77c0.227,0.297,0.035,1.014,0.099,1.475
			C414.926,239.947,415.119,239.23,415.055,238.77z"/>
		<path fill-rule="evenodd" clip-rule="evenodd" fill="#FFFFFF" d="M402.174,240.933c0.163,5.179,0.163,11.046,0,16.225
			C402.174,251.75,402.174,246.341,402.174,240.933z"/>
		<path fill-rule="evenodd" clip-rule="evenodd" fill="#FFFFFF" d="M413.383,241.622c0.229,0.558,0.034,1.54,0.099,2.262
			C413.254,243.325,413.447,242.343,413.383,241.622z"/>
		<path fill-rule="evenodd" clip-rule="evenodd" fill="#FFFFFF" d="M415.35,246.046c0.227,0.298,0.035,1.014,0.099,1.475
			C415.221,247.224,415.414,246.507,415.35,246.046z"/>
		<path fill-rule="evenodd" clip-rule="evenodd" fill="#FFFFFF" d="M413.58,247.128c0.227,0.297,0.035,1.014,0.098,1.475
			C413.451,248.306,413.644,247.589,413.58,247.128z"/>
		<path fill-rule="evenodd" clip-rule="evenodd" fill="#FFFFFF" d="M402.174,270.728c0.229,0.689,0.033,1.802,0.098,2.655
			C402.043,272.694,402.238,271.581,402.174,270.728z"/>
		<path fill-rule="evenodd" clip-rule="evenodd" fill="#FFFFFF" d="M414.76,275.251c0.228,0.363,0.034,1.146,0.099,1.672
			c-0.228-0.33-0.034-1.08-0.099-1.574C414.76,275.317,414.76,275.284,414.76,275.251z"/>
		<path fill-rule="evenodd" clip-rule="evenodd" fill="#FFFFFF" d="M417.219,275.546c0,0.459,0,0.918,0,1.377
			c-0.227-0.265-0.035-0.949-0.099-1.377C417.152,275.546,417.186,275.546,417.219,275.546z"/>
		<path fill-rule="evenodd" clip-rule="evenodd" fill="#FFFFFF" d="M414.957,280.07c0.227,0.33,0.034,1.08,0.098,1.573
			C414.828,281.313,415.021,280.563,414.957,280.07z"/>
		<path fill-rule="evenodd" clip-rule="evenodd" fill="#FFFFFF" d="M410.729,281.741c0.228,0.46,0.033,1.343,0.098,1.967
			C410.599,283.248,410.793,282.365,410.729,281.741z"/>
		<path fill-rule="evenodd" clip-rule="evenodd" fill="#FFFFFF" d="M415.153,284.298c0.227,0.265,0.034,0.949,0.099,1.377
			C415.025,285.41,415.217,284.727,415.153,284.298z"/>
		<path fill-rule="evenodd" clip-rule="evenodd" fill="#FFFFFF" d="M410.139,224.413c-0.066,3.901,0.131,8.063-0.099,11.8
			C410.105,232.313,409.908,228.15,410.139,224.413z"/>
		<path fill-rule="evenodd" clip-rule="evenodd" fill="#FFFFFF" d="M417.021,269.155c0,0.623,0,1.246,0,1.868
			c-0.033,0-0.065,0-0.098,0C416.988,270.432,416.794,269.583,417.021,269.155z"/>
		<path fill-rule="evenodd" clip-rule="evenodd" fill="#FFFFFF" d="M390.57,270.433c1.641-0.293,3.963,0.096,5.604-0.197
			C394.697,270.693,392.375,270.304,390.57,270.433z"/>
		<path fill-rule="evenodd" clip-rule="evenodd" fill="#FFFFFF" d="M401.584,150.27c-0.066,1.017,0.13,2.294-0.1,3.146
			C401.55,152.4,401.354,151.123,401.584,150.27z"/>
		<path fill-rule="evenodd" clip-rule="evenodd" fill="#FFFFFF" d="M402.075,218.611c0.163,0.429,0.163,1.539,0,1.967
			C402.075,219.923,402.075,219.267,402.075,218.611z"/>
		<path fill-rule="evenodd" clip-rule="evenodd" fill="#FFFFFF" d="M413.678,250.078c0.226,0.168,0.037,0.75,0.099,1.082
			C413.552,250.992,413.74,250.409,413.678,250.078z"/>
		<path fill-rule="evenodd" clip-rule="evenodd" fill="#FFFFFF" d="M411.318,252.733c0.557,0,1.114,0,1.672,0
			c-0.363,0.163-1.406,0.163-1.771,0C411.253,252.733,411.285,252.733,411.318,252.733z"/>
		<path fill-rule="evenodd" clip-rule="evenodd" fill="#FFFFFF" d="M411.023,271.22c0.138-0.163,0.943-0.163,1.082,0
			C411.744,271.22,411.384,271.22,411.023,271.22z"/>
		<path fill-rule="evenodd" clip-rule="evenodd" fill="#FFFFFF" d="M415.055,282.921c0.227,0.265,0.035,0.949,0.099,1.376
			C414.927,284.033,415.118,283.35,415.055,282.921z"/>
		<path fill-rule="evenodd" clip-rule="evenodd" fill="#FFFFFF" d="M402.271,284.2c0.228,0.363,0.034,1.146,0.099,1.672
			C402.143,285.509,402.336,284.726,402.271,284.2z"/>
		<path fill-rule="evenodd" clip-rule="evenodd" fill="#FFFFFF" d="M411.908,212.22c0.225,0.168,0.036,0.751,0.099,1.082
			C411.781,213.133,411.971,212.551,411.908,212.22z"/>
	</g>
</g>
</svg>
