<?xml version="1.0" encoding="utf-8"?>
<!-- Generator: Adobe Illustrator 15.1.0, SVG Export Plug-In . SVG Version: 6.00 Build 0)  -->
<!DOCTYPE svg PUBLIC "-//W3C//DTD SVG 1.1//EN" "http://www.w3.org/Graphics/SVG/1.1/DTD/svg11.dtd">
<svg version="1.1" id="Layer_1" xmlns="http://www.w3.org/2000/svg" xmlns:xlink="http://www.w3.org/1999/xlink" x="0px" y="0px"
	 width="1024px" height="467.959px" viewBox="0 -48.959 1024 467.959" enable-background="new 0 -48.959 1024 467.959"
	 xml:space="preserve">
<g id="Layer_2_1_">
</g>
<g id="Layer_1_2_">
	<g id="Layer_1_1_" display="none">
		
			<image display="inline" overflow="visible" enable-background="new    " width="1024" height="647" xlink:href="2F2EAD73.png"  transform="matrix(1 0 0 1 4.882813e-004 -111.603)">
		</image>
	</g>
	<rect y="-48.959" fill="#4D7028" width="1023.001" height="528.041"/>
</g>
<g id="Layer_3">
	<path fill="#709614" d="M522.751,265.648c0,0,207.749-5,258.749-22s96-56.212,104-58.606s27-1.606,33,0s17-4.606,23,0
		s66,43.606,66,43.606l15.501,5.217v102.783l-500.25,14V265.648z"/>
	<g id="Layer_2_2_">
		<path fill="#7AAB14" d="M133.617,222.093c0.333-1.559,0.633-2.971,0.633-2.971h5V156.46h6v-4.086h7.5V98.111h4.251v-3.858h21.75
			v1.135h17v3.859h5.25v143.487h2.25v2.271h2v-1.59h9v-22.931h15.5v-36.553h57.25v2.271h3.75V241.6h6.25v58.121h3.75v-3.859h5
			v-89.452h2v-13.396h1.5v-40.187h10.25v-3.632l15.5-13.85v-5.223h5v4.769l14.5,14.758v2.951h12v47.905h29v26.789h5.5v3.18h6.5
			v56.986h8.5h6.25v-76.514h3.25v-11.578h10.5V186.2h17.25v11.352h5.75v-1.361h3.25v2.725h5.25v13.168h2v45.408l11-5.902h30.5
			l11.75,6.811v19.525h4.25v4.539h16.75l4.75,5.678h13.75v9.31h3.75l1.875,1.702h2.791v-3.52l3.168,2.875l2.998-2.725v6.813h4.5
			v-5.752l2.168,1.969h2.166v1.967l2.834-2.572l3.666,3.329v-7.72l3.918,3.559v2.497l1.957-1.776l1.459,1.322l3.5-3.179v1.815
			l1.5,1.361v-3.48l2.75,2.498v1.739l3.041-2.763l2-1.814l2.209,2.006h2.5l2.416-2.194v2.043l2.793,2.534l2.457-2.23v-2.119
			c0,0-1.666,2.119,0,2.119s1.666,0,1.666,0l1.834,1.666l3.168-2.878l1.666-1.515h3.666h8.666h11.334l2.5-2.27h1.5l1.75,1.59h3.25
			l1.209,1.096h2.457v-2.838h5.334h8.666v-2.117h4.334l1.5,1.361v-35.268h61.166v39.051h29.668v-5.449h4.332v-5.449h3.334v13.927h38
			l3.668-3.329v-5.449h8.332v-2.423h43v9.989l2.834-2.572l3.334,3.027h7.498v-2.573h4.334v-3.026h5.666v4.844h27.334v7.567h4.334
			v-4.237l3,1.514l5.332,0.304l5.334-1.815c0,0-2.332,2.121,0,2.726c2.334,0.604,2.332,2.118,3.666,1.514s3-1.211,3-1.211l4-2.423
			v1.816l1.334-0.303l4-0.605l3.666,1.212l4-1.212l1.668,0.605l3-0.304l4,2.563h3h2.332l3.334-3.773l1.334,3.771h2l2-1.652v-3.936
			l2-0.908v1.211v2.726l2.332,1.211l3.334,1.351c1.666-1.351,5.334-1.957,5.334-1.957c2.332,1.213,11.332,1.957,11.332,1.957h1.334
			h1.334v174.226H-1l0.001-233.396c0,0.604,7,0,7,0v-50.855h11v-37.537h-1.333l1.333-4.541h65.667v30.574l3,1.967v2.877h2.667v2.119
			h5.666c0,0,0,16.733,0,32.691"/>
		<path fill="#7AAB14" d="M132.622,233.865c0.08,3.523,0.128,5.636,0.128,5.636"/>
		<path fill="#7AAB14" d="M131.017,163.452c0.008,0.372,0.02,0.885,0.035,1.526"/>
		<path fill="#7AAB14" d="M165.881,63.386c0.762,0.343,1.369,0.615,1.369,0.615s-0.522,0.15-1.417,0.41"/>
		<path fill="#7AAB14" d="M159.706,42.293c1.224,0.506,3.899,1.613,6.889,2.849"/>
	</g>
	<g>
		<path fill="#FFFFFF" d="M112.346-22.712c5.722,8.755,1.773,26.021,5.425,36.598c3.316,0,6.631,0,9.948,0
			c-0.5,3.887,2.188,4.97,5.425,5.569c-0.458,3.575-5.114,3.457-4.521,7.956c12.139,4.172,25.537,7.235,37.077,11.934
			c0.656,2.434-1.56,2.34-0.904,4.773c2.199,3.104,10.107,1.186,10.852,5.569c-10.873-2.008-27.05,6.801-12.66,10.343
			c-4.047,4.396-13.792,3.777-20.799,5.569c-8.335,38.041-13.992,76.262-11.756,118.546c3.456,65.355,12.303,127.179,18.991,187.765
			c6.933,0,13.866,0,20.798,0c0,6.631,0,13.261,0,19.891c-35.878,1.325-78.064,1.325-113.942,0c0-6.63,0-13.26,0-19.891
			c6.632,0,13.263,0,19.895,0c6.125-51.842,16.724-108.033,20.797-164.69c3.773-52.476-5.87-96.393-12.66-140.824
			C78.294,64,68.686,64.763,64.417,60.827c-0.402-3.006,4.726-1.147,5.426-3.182c0.781-9.174-12.627-5.864-18.991-8.752
			c2.138-2.627,7.211-2.672,10.852-3.978c0.525-2.583-0.616-3.701-0.904-5.569c12.021-4.01,23.45-8.541,37.077-11.139
			c1.873-5.627-5.481-6.479-3.618-9.547c4.223,0.798,5.055-1.387,4.521-4.773c3.015,0,6.029,0,9.044,0
			C112.476,4.453,110.802-10.544,112.346-22.712z M87.025,67.192c0.551,0.045,1.07,0.119,0.904,0.795
			c1.479,10.101,3.529,21.225,5.426,31.825c1.884,10.525,1.837,21.985,8.139,29.438c1.352-20.302-2.927-42.496-4.522-62.854
			C92.841,67.427,87.626,64.419,87.025,67.192z M106.016,107.769c0.223-11.105,1.866-32.582-2.713-41.372c-0.603,0-1.205,0-1.808,0
			C103.179,80.975,102.537,93.971,106.016,107.769z M128.623,66.396c-0.545,19.749-5.108,44.577-1.809,62.058
			c5.396-19.387,8.207-41.047,11.756-62.058C135.254,66.396,131.939,66.396,128.623,66.396z M122.293,106.973
			c-0.844-14.907,4.059-31.01,0.905-39.78c-0.905,0-1.809,0-2.713,0C121.526,77.008,118.204,97.22,122.293,106.973z M96.972,242.229
			c1.929-3.735,2.807-16.453,0.905-18.301C98.898,230.259,92.521,238.137,96.972,242.229z M130.432,242.229
			c1.176-3.711-1.662-14.957-2.713-16.709C128.835,230.902,125.106,240.547,130.432,242.229z M98.781,295.533
			c1.507,0,3.015,0,4.521,0c0.929-20.363,2.741-44.887,0.905-62.854C103.124,253.275,96.522,277.725,98.781,295.533z
			 M121.389,282.805c0,4.322-2.925,13.608,4.521,13.524c4.662-2.351,2.268-9.192,1.809-13.524
			c-1.614-15.248-3.577-38.91-6.331-50.125C121.51,246.547,121.389,267.01,121.389,282.805z M91.546,270.074
			c7.474-1.453,5.542-19.428,4.521-23.073C90.767,251.354,93.139,262.458,91.546,270.074z M134.954,270.074
			c0.018-6.21-0.187-18.861-5.426-23.073C130.79,255.173,128.164,266.766,134.954,270.074z M136.762,297.125
			c1.9-6.721-0.834-16.23-1.808-23.073c-0.904,0-1.809,0-2.713,0C132.863,279.438,131.532,293.166,136.762,297.125z M90.643,297.125
			c3.306-5.578,2.486-14.785,3.617-22.277c-0.904,0-1.809,0-2.713,0C92.477,282.391,86.945,292.419,90.643,297.125z M140.379,323.38
			c0.487-5.478-1.123-15.979-2.713-22.276c-0.905,0-1.809,0-2.713,0C137.618,307.775,133.124,320.746,140.379,323.38z
			 M87.929,324.176c2.726-4.586,4.849-17.892,1.809-22.277c-0.603,0-1.206,0-1.809,0C88.767,309.636,84.454,321.535,87.929,324.176z
			 M96.972,301.898c-2.429,19.078-4.662,38.33-6.33,58.08c6.925,0.007,9.474-0.32,14.469-0.797
			c-0.493-18.688,1.049-42.421-0.904-57.283C101.795,301.898,99.384,301.898,96.972,301.898z M121.389,301.898
			c0.68,20.224-1.432,37.989-0.904,58.08c5.125,0,10.249,0,15.373,0c-1.596-19.548-4.275-38.143-5.425-58.08
			C127.418,301.898,124.403,301.898,121.389,301.898z M85.216,352.022c4.088-5.155,1.66-16.044,3.617-23.073
			c-0.904,0-1.808,0-2.713,0C85.268,335.316,82.645,347.862,85.216,352.022z M142.188,350.431
			c-0.939-7.396,1.139-17.443-3.617-21.48C138.839,333.868,137.641,346.653,142.188,350.431z M82.504,359.979
			c3.582,1.811,4.005-4.873,0.904-3.979C83.778,357.917,81.756,357.729,82.504,359.979z M141.284,361.569
			c2.854,1.022,2.854-6.594,0-5.569C141.284,357.856,141.284,359.713,141.284,361.569z"/>
	</g>
</g>
</svg>
